<svg height="1024" legacy-metrics="false" node-id="1" sillyvg="true" template-height="1024" template-width="1024"
  version="1.1" viewBox="0 0 1024 1024" width="1024" xmlns="http://www.w3.org/2000/svg"
  xmlns:xlink="http://www.w3.org/1999/xlink">
  <defs node-id="47"></defs>
  <path
    d="M 598.50 802.30 C 610.60 810.40 624.40 851.50 624.40 851.50 C 624.40 851.50 581.20 854.30 569.10 846.20 C 557.00 838.10 553.70 821.70 561.90 809.60 C 570.00 797.40 586.40 794.20 598.50 802.30 C 598.50 802.30 598.50 802.30 598.50 802.30 L 598.50 802.30 Z"
    fill="#f1f1f1" fill-rule="nonzero" node-id="49" stroke="none" target-height="54.0437" target-width="66.96588"
    target-x="557.43414" target-y="797.88214"></path>
  <path
    d="M 625.00 851.20 L 624.30 851.70 C 599.60 820.70 562.30 810.00 562.00 809.90 L 562.20 809.10 C 562.50 809.20 600.10 819.90 625.00 851.20 Z"
    fill="#ffffff" fill-rule="nonzero" node-id="51" stroke="none" target-height="42.600037" target-width="63"
    target-x="562" target-y="809.1"></path>
  <path
    d="M 663.40 785.90 C 662.60 806.10 624.30 852.20 624.30 852.20 C 624.30 852.20 589.60 803.30 590.40 783.10 C 591.20 762.90 608.10 747.20 628.30 748.00 C 648.40 748.70 664.10 765.70 663.40 785.90 C 663.40 785.90 663.40 785.90 663.40 785.90 L 663.40 785.90 Z"
    fill="#f1f1f1" fill-rule="nonzero" node-id="53" stroke="none" target-height="104.20001" target-width="73"
    target-x="590.4" target-y="748"></path>
  <path
    d="M 624.90 852.50 L 623.80 852.10 C 642.40 800.50 627.90 748.80 627.80 748.30 L 629.00 748.00 C 629.10 748.50 643.70 800.50 624.90 852.50 Z"
    fill="#ffffff" fill-rule="nonzero" node-id="55" stroke="none" target-height="104.5" target-width="10.66571"
    target-x="623.8" target-y="748"></path>
  <path
    d="M 525.60 671.10 L 196.90 671.10 C 184.70 671.10 174.80 661.20 174.80 649.00 L 174.80 273.30 C 174.80 261.10 184.70 251.20 196.90 251.20 L 525.60 251.20 C 537.80 251.20 547.70 261.10 547.70 273.30 L 547.70 649.00 C 547.70 661.20 537.80 671.10 525.60 671.10 Z"
    fill="#e6e6e6" fill-rule="nonzero" node-id="57" stroke="none" target-height="419.89996" target-width="372.90002"
    target-x="174.8" target-y="251.2"></path>
  <path
    d="M 510.30 652.70 L 212.30 652.70 C 201.50 652.70 192.70 643.90 192.70 633.10 L 192.70 289.30 C 192.70 278.50 201.50 269.70 212.30 269.70 L 510.30 269.70 C 521.10 269.70 529.90 278.50 529.90 289.30 L 529.90 633.10 C 529.90 643.90 521.10 652.70 510.30 652.70 Z"
    fill="#ffffff" fill-rule="nonzero" node-id="59" stroke="none" target-height="383" target-width="337.2"
    target-x="192.7" target-y="269.7"></path>
  <path
    d="M 498.40 318.60 L 348.10 318.60 C 345.40 318.60 343.20 316.40 343.20 313.70 C 343.20 311.00 345.40 308.80 348.10 308.80 C 348.10 308.80 348.10 308.80 348.10 308.80 L 498.40 308.80 C 501.10 308.80 503.30 311.00 503.30 313.70 C 503.30 316.40 501.10 318.60 498.40 318.60 C 498.40 318.60 498.40 318.60 498.40 318.60 Z"
    fill="#e4e4e4" fill-rule="nonzero" node-id="61" stroke="none" target-height="9.800018" target-width="160.09998"
    target-x="343.2" target-y="308.8"></path>
  <path
    d="M 498.40 338.00 L 348.10 338.00 C 345.40 338.00 343.20 335.80 343.20 333.10 C 343.20 330.40 345.40 328.20 348.10 328.20 L 498.40 328.20 C 501.10 328.20 503.30 330.40 503.30 333.10 C 503.30 335.80 501.10 338.00 498.40 338.00 Z"
    fill="#e4e4e4" fill-rule="nonzero" node-id="63" stroke="none" target-height="9.799988" target-width="160.09998"
    target-x="343.2" target-y="328.2"></path>
  <path
    d="M 413.20 357.30 L 348.00 357.30 C 345.30 357.30 343.10 355.10 343.10 352.40 C 343.10 349.70 345.30 347.50 348.00 347.50 L 413.20 347.50 C 415.90 347.50 418.10 349.70 418.10 352.40 C 418.10 355.10 415.90 357.30 413.20 357.30 Z"
    fill="#e4e4e4" fill-rule="nonzero" node-id="65" stroke="none" target-height="9.799988" target-width="75"
    target-x="343.1" target-y="347.5"></path>
  <path
    d="M 480.30 435.60 L 242.90 435.60 C 240.20 435.60 238.00 433.40 238.00 430.70 C 238.00 428.00 240.20 425.80 242.90 425.80 C 242.90 425.80 242.90 425.80 242.90 425.80 L 480.20 425.80 C 482.90 425.80 485.10 428.00 485.10 430.70 C 485.20 433.40 483.00 435.60 480.30 435.60 C 480.30 435.60 480.30 435.60 480.30 435.60 Z"
    fill="#e4e4e4" fill-rule="nonzero" node-id="67" stroke="none" target-height="9.800018" target-width="247.1"
    target-x="238" target-y="425.8"></path>
  <path
    d="M 480.30 455.00 L 242.90 455.00 C 240.20 455.00 238.00 452.80 238.00 450.10 C 238.00 447.40 240.20 445.20 242.90 445.20 L 242.90 445.20 L 480.20 445.20 C 482.90 445.20 485.10 447.40 485.10 450.10 C 485.20 452.80 483.00 455.00 480.30 455.00 Z"
    fill="#e4e4e4" fill-rule="nonzero" node-id="69" stroke="none" target-height="9.799988" target-width="247.1"
    target-x="238" target-y="445.2"></path>
  <path
    d="M 480.30 498.90 L 242.90 498.90 C 240.20 498.90 238.00 496.70 238.00 494.00 C 238.00 491.30 240.20 489.10 242.90 489.10 C 242.90 489.10 242.90 489.10 242.90 489.10 L 480.20 489.10 C 482.90 489.10 485.10 491.30 485.10 494.00 C 485.20 496.70 483.00 498.90 480.30 498.90 C 480.30 498.90 480.30 498.90 480.30 498.90 Z"
    fill="#e4e4e4" fill-rule="nonzero" node-id="71" stroke="none" target-height="9.799988" target-width="247.1"
    target-x="238" target-y="489.1"></path>
  <path
    d="M 480.30 518.30 L 242.90 518.30 C 240.20 518.30 238.00 516.10 238.00 513.40 C 238.00 510.70 240.20 508.50 242.90 508.50 L 242.90 508.50 L 480.20 508.50 C 482.90 508.50 485.10 510.70 485.10 513.40 C 485.20 516.10 483.00 518.30 480.30 518.30 Z"
    fill="#e4e4e4" fill-rule="nonzero" node-id="73" stroke="none" target-height="9.799988" target-width="247.1"
    target-x="238" target-y="508.5"></path>
  <path
    d="M 480.30 562.30 L 242.90 562.30 C 240.20 562.30 238.00 560.10 238.00 557.40 C 238.00 554.70 240.20 552.50 242.90 552.50 C 242.90 552.50 242.90 552.50 242.90 552.50 L 480.20 552.50 C 482.90 552.50 485.10 554.70 485.10 557.40 C 485.20 560.10 483.00 562.30 480.30 562.30 C 480.30 562.30 480.30 562.30 480.30 562.30 Z"
    fill="#e4e4e4" fill-rule="nonzero" node-id="75" stroke="none" target-height="9.799988" target-width="247.1"
    target-x="238" target-y="552.5"></path>
  <path
    d="M 480.30 581.70 L 242.90 581.70 C 240.20 581.70 238.00 579.50 238.00 576.80 C 238.00 574.10 240.20 571.90 242.90 571.90 L 242.90 571.90 L 480.20 571.90 C 482.90 571.90 485.10 574.10 485.10 576.80 C 485.10 579.50 483.00 581.70 480.30 581.70 Z"
    fill="#e4e4e4" fill-rule="nonzero" node-id="77" stroke="none" target-height="9.799988" target-width="247.1"
    target-x="238" target-y="571.9"></path>
  <path
    d="M 480.20 635.30 L 415.00 635.30 C 412.30 635.30 410.10 633.10 410.10 630.40 C 410.10 627.70 412.30 625.50 415.00 625.50 L 415.00 625.50 L 480.20 625.50 C 482.90 625.50 485.10 627.70 485.10 630.40 C 485.10 633.10 482.90 635.30 480.20 635.30 Z"
    fill="#c5a47a" fill-rule="nonzero" node-id="79" stroke="none" target-height="9.799988" target-width="75"
    target-x="410.1" target-y="625.5"></path>
  <path
    d="M 306.50 333.60 C 306.50 344.10 302.90 354.40 296.40 362.60 C 294.30 365.30 291.90 367.70 289.20 369.90 C 281.90 375.80 273.00 379.40 263.70 380.10 C 262.40 380.20 261.10 380.30 259.90 380.30 C 257.30 380.30 254.80 380.10 252.30 379.70 C 251.40 379.60 250.50 379.40 249.70 379.20 C 248.20 378.90 246.70 378.40 245.20 378.00 C 240.40 376.40 236.00 374.10 231.90 371.00 C 230.80 370.20 229.80 369.40 228.80 368.50 C 227.60 367.40 226.40 366.30 225.30 365.00 C 225.00 364.70 224.70 364.30 224.40 364.00 C 207.70 344.40 210.00 315.00 229.60 298.30 C 249.20 281.60 278.60 283.90 295.30 303.50 C 302.50 311.80 306.40 322.50 306.50 333.60 L 306.50 333.60 Z"
    fill="#e4e4e4" fill-rule="nonzero" node-id="81" stroke="none" target-height="93.15222" target-width="93.25224"
    target-x="213.24776" target-y="287.14777"></path>
  <path
    d="M 277.30 330.40 C 277.30 340.95 268.75 349.50 258.20 349.50 C 247.65 349.50 239.10 340.95 239.10 330.40 C 239.10 319.85 247.65 311.30 258.20 311.30 C 268.75 311.30 277.30 319.85 277.30 330.40 Z"
    fill="#9e616a" fill-rule="nonzero" node-id="83" stroke="none" target-height="38.200012" target-width="38.19998"
    target-x="239.1" target-y="311.3"></path>
  <path
    d="M 279.50 321.10 C 279.60 319.40 279.10 317.70 278.10 316.30 L 277.40 315.30 C 274.90 310.50 270.80 306.20 267.80 303.00 C 265.50 300.60 263.30 299.50 261.10 299.60 C 259.50 299.70 258.10 300.40 257.00 301.60 C 251.20 301.20 245.70 304.40 243.00 309.60 C 233.90 314.40 236.60 328.70 236.60 328.80 L 238.80 332.50 L 239.00 332.00 C 239.00 332.00 239.00 332.00 239.10 331.90 C 239.50 331.10 241.90 326.90 243.50 324.10 C 244.10 323.20 244.80 322.40 245.70 321.80 C 247.20 320.80 248.90 320.10 250.70 319.90 L 255.60 319.30 L 253.80 322.10 L 267.00 322.10 L 272.10 321.50 C 272.60 323.60 276.70 331.70 277.10 332.70 L 277.10 332.80 L 277.40 333.30 L 278.90 329.10 C 279.80 326.60 280.00 323.80 279.50 321.10 Z"
    fill="#2f2e41" fill-rule="nonzero" node-id="85" stroke="none" target-height="33.69998" target-width="43.534897"
    target-x="236.23201" target-y="299.6"></path>
  <path
    d="M 232.00 371.00 C 232.80 369.90 237.10 364.90 246.90 362.20 L 252.10 356.40 L 272.90 353.10 L 283.50 358.90 L 296.50 362.50 C 294.40 365.20 292.00 367.60 289.30 369.80 C 282.00 375.70 273.10 379.30 263.80 380.00 C 262.50 380.10 261.30 380.20 260.00 380.20 C 257.40 380.20 254.90 380.00 252.40 379.60 C 251.50 379.50 250.60 379.30 249.80 379.10 C 248.30 378.80 246.80 378.30 245.30 377.90 C 240.40 376.30 235.90 374.00 232.00 371.00 C 231.90 371.00 231.90 370.90 231.90 370.90 L 232.00 371.00 Z"
    fill="#c5a47a" fill-rule="nonzero" node-id="87" stroke="none" target-height="27.100006" target-width="64.600006"
    target-x="231.9" target-y="353.1"></path>
  <path
    d="M 626.10 194.10 L 96.40 194.10 C 94.80 194.10 93.40 192.80 93.40 191.10 L 93.40 173.60 C 93.40 172.00 94.70 170.60 96.40 170.60 L 626.10 170.60 C 627.70 170.60 629.10 171.90 629.10 173.60 L 629.10 191.10 C 629.10 192.80 627.80 194.10 626.10 194.10 Z"
    fill="#c5a47a" fill-rule="nonzero" node-id="89" stroke="none" target-height="23.5" target-width="535.69995"
    target-x="93.4" target-y="170.6"></path>
  <path
    d="M 114.80 181.60 C 114.80 183.92 112.92 185.80 110.60 185.80 C 108.28 185.80 106.40 183.92 106.40 181.60 C 106.40 179.28 108.28 177.40 110.60 177.40 C 112.92 177.40 114.80 179.28 114.80 181.60 Z"
    fill="#ffffff" fill-rule="nonzero" id="a85e5c17-ea9f-4706-8082-8afb2e9db2dc" node-id="25" stroke="none"
    target-height="8.400009" target-width="8.400002" target-x="106.4" target-y="177.4"></path>
  <path
    d="M 130.80 181.60 C 130.80 183.92 128.92 185.80 126.60 185.80 C 124.28 185.80 122.40 183.92 122.40 181.60 C 122.40 179.28 124.28 177.40 126.60 177.40 C 128.92 177.40 130.80 179.28 130.80 181.60 Z"
    fill="#ffffff" fill-rule="nonzero" id="b621e56c-df3f-4a6b-a567-05f014ec6f14" node-id="26" stroke="none"
    target-height="8.400009" target-width="8.400002" target-x="122.4" target-y="177.4"></path>
  <path
    d="M 146.80 181.60 C 146.80 183.92 144.92 185.80 142.60 185.80 C 140.28 185.80 138.40 183.92 138.40 181.60 C 138.40 179.28 140.28 177.40 142.60 177.40 C 144.92 177.40 146.80 179.28 146.80 181.60 Z"
    fill="#ffffff" fill-rule="nonzero" id="f2c0e2e9-064c-4994-bbee-183d3c3fcd77" node-id="27" stroke="none"
    target-height="8.400009" target-width="8.400009" target-x="138.4" target-y="177.4"></path>
  <path
    d="M 610.50 178.70 L 592.00 178.70 C 591.20 178.70 590.60 178.10 590.60 177.30 C 590.60 176.60 591.20 176.00 592.00 175.90 L 610.40 175.90 C 611.20 175.90 611.80 176.50 611.80 177.30 C 611.80 178.00 611.20 178.60 610.50 178.70 C 610.50 178.70 610.50 178.70 610.50 178.70 L 610.50 178.70 Z"
    fill="#ffffff" fill-rule="nonzero" node-id="94" stroke="none" target-height="2.800003" target-width="21.200012"
    target-x="590.6" target-y="175.9"></path>
  <path
    d="M 610.50 183.80 L 592.00 183.80 C 591.20 183.80 590.60 183.20 590.60 182.40 C 590.60 181.60 591.20 181.00 592.00 181.00 L 610.40 181.00 C 611.20 181.00 611.80 181.60 611.80 182.40 C 611.80 183.10 611.20 183.80 610.50 183.80 C 610.50 183.80 610.50 183.80 610.50 183.80 L 610.50 183.80 Z"
    fill="#ffffff" fill-rule="nonzero" node-id="96" stroke="none" target-height="2.800003" target-width="21.200012"
    target-x="590.6" target-y="181"></path>
  <path
    d="M 610.50 188.90 L 592.00 188.90 C 591.20 188.90 590.60 188.30 590.60 187.50 C 590.60 186.80 591.20 186.20 592.00 186.10 L 610.40 186.10 C 611.20 186.10 611.80 186.70 611.80 187.50 C 611.80 188.30 611.20 188.90 610.50 188.90 L 610.50 188.90 Z"
    fill="#ffffff" fill-rule="nonzero" node-id="98" stroke="none" target-height="2.7999878" target-width="21.200012"
    target-x="590.6" target-y="186.1"></path>
  <path
    d="M 755.90 640.10 C 752.70 636.60 752.90 631.20 756.40 628.00 C 756.80 627.70 757.20 627.40 757.60 627.10 L 750.60 597.50 L 765.50 602.90 L 769.90 630.20 C 772.20 634.40 770.70 639.60 766.50 641.90 C 762.90 643.80 758.60 643.00 755.90 640.10 L 755.90 640.10 Z"
    fill="#9e616a" fill-rule="nonzero" node-id="100" stroke="none" target-height="45.42566" target-width="20.374023"
    target-x="750.6" target-y="597.5"></path>
  <path
    d="M 720.20 516.00 L 726.20 531.30 C 726.20 531.30 723.60 546.60 727.90 550.00 C 732.20 553.40 730.50 553.40 730.50 556.00 C 730.80 559.70 732.70 563.10 735.60 565.40 C 739.00 568.00 754.30 619.90 754.30 619.90 L 769.60 619.90 C 769.10 615.90 769.10 611.90 769.60 608.00 C 770.50 602.00 767.00 586.70 765.30 584.10 C 763.60 581.50 765.30 578.10 765.30 573.00 C 765.30 567.90 761.90 565.30 761.90 556.80 C 761.90 548.30 751.70 481.80 752.50 474.20 C 753.30 466.60 744.00 459.70 744.00 459.70 L 735.50 459.70 L 720.20 516.00 Z"
    fill="#e4e4e4" fill-rule="nonzero" node-id="102" stroke="none" target-height="160.20001" target-width="49.54425"
    target-x="720.2" target-y="459.7"></path>
  <path d="M 759.40 839.90 L 748.00 839.90 L 742.70 796.20 L 759.40 796.20 Z" fill="#9e616a" fill-rule="nonzero"
    node-id="104" stroke="none" target-height="43.700012" target-width="16.700012" target-x="742.7" target-y="796.2">
  </path>
  <path
    d="M 762.30 850.90 L 725.80 850.90 L 725.80 850.40 C 725.80 842.50 732.20 836.20 740.00 836.20 L 740.00 836.20 L 746.70 831.10 L 759.20 836.20 L 762.40 836.20 L 762.30 850.90 Z"
    fill="#2f2e41" fill-rule="nonzero" node-id="106" stroke="none" target-height="19.800049" target-width="36.600037"
    target-x="725.8" target-y="831.1"></path>
  <path d="M 655.70 839.60 L 645.10 835.70 L 655.00 792.80 L 670.70 798.60 Z" fill="#9e616a" fill-rule="nonzero"
    node-id="108" stroke="none" target-height="46.799988" target-width="25.600037" target-x="645.1" target-y="792.8">
  </path>
  <path
    d="M 654.60 850.90 L 620.30 838.30 L 620.50 837.90 C 623.20 830.50 631.40 826.70 638.70 829.40 L 638.70 829.40 L 646.70 826.90 L 656.70 835.90 L 659.70 837.00 L 654.60 850.90 Z"
    fill="#2f2e41" fill-rule="nonzero" node-id="110" stroke="none" target-height="24" target-width="39.400024"
    target-x="620.3" target-y="826.9"></path>
  <path
    d="M 734.40 635.50 C 734.40 635.50 726.70 673.00 739.50 669.60 C 752.30 666.20 747.20 633.80 747.20 633.80 L 734.40 635.50 Z"
    fill="#a0616a" fill-rule="nonzero" node-id="112" stroke="none" target-height="36.00128" target-width="16.050903"
    target-x="732.1406" target-y="633.8"></path>
  <path
    d="M 678.20 604.40 C 678.20 604.40 668.00 618.00 668.00 625.70 C 668.00 633.40 664.60 701.50 664.60 701.50 C 664.60 701.50 638.70 803.00 643.80 808.10 C 648.90 813.20 666.80 818.30 669.40 815.80 C 672.00 813.30 694.40 708.40 694.40 708.40 L 715.70 651.30 L 735.30 733.10 L 737.00 820.00 C 737.00 820.00 758.30 825.10 762.60 821.70 C 766.90 818.30 767.70 735.70 762.60 706.70 C 757.50 677.70 763.50 611.30 763.50 611.30 L 678.20 604.40 Z"
    fill="#2f2e41" fill-rule="nonzero" node-id="114" stroke="none" target-height="218.43561" target-width="122.94299"
    target-x="643.15204" target-y="604.4"></path>
  <path
    d="M 738.00 397.00 C 738.00 411.14 726.54 422.60 712.40 422.60 C 698.26 422.60 686.80 411.14 686.80 397.00 C 686.80 382.86 698.26 371.40 712.40 371.40 C 726.54 371.40 738.00 382.86 738.00 397.00 Z"
    fill="#9e616a" fill-rule="nonzero" node-id="116" stroke="none" target-height="51.200012" target-width="51.200012"
    target-x="686.8" target-y="371.4"></path>
  <path
    d="M 679.90 459.60 C 679.90 459.60 687.30 448.60 701.70 434.20 C 709.40 431.60 722.70 433.10 727.30 434.20 C 748.60 462.30 749.90 460.40 755.50 476.20 C 756.90 480.30 757.70 484.20 757.00 487.40 C 754.40 500.20 762.50 603.70 763.40 607.10 C 764.30 610.50 770.20 614.80 764.30 614.80 C 758.40 614.80 668.00 611.40 669.70 608.80 C 671.40 606.20 679.90 459.60 679.90 459.60 Z"
    fill="#e4e4e4" fill-rule="nonzero" node-id="118" stroke="none" target-height="182.0325" target-width="97.15814"
    target-x="669.7" target-y="432.7675"></path>
  <g node-id="133">
    <path d="M 676.00 607.60 L 701.60 551.20 L 688.80 611.20 Z" fill="#000000" fill-opacity="0.1" fill-rule="nonzero"
      group-id="1" node-id="122" stroke-linecap="butt" stroke-opacity="0.1" stroke-width="1" target-height="60"
      target-width="25.599976" target-x="676" target-y="551.2"></path>
  </g>
  <path
    d="M 704.60 420.70 C 707.00 418.90 709.20 416.90 711.20 414.70 C 713.20 412.40 714.40 409.60 714.80 406.70 C 715.10 403.70 713.80 400.70 711.40 398.80 C 709.00 397.10 705.30 397.20 703.20 399.40 C 704.20 396.20 705.10 392.50 703.10 389.90 C 701.30 387.50 697.90 387.10 695.00 386.30 C 689.40 384.70 684.60 381.20 681.50 376.20 L 686.40 377.20 L 685.90 373.70 L 690.00 375.10 L 690.00 370.20 L 694.20 372.60 C 699.40 367.90 706.10 365.30 713.10 365.50 C 716.60 365.60 720.10 366.50 723.10 368.30 C 726.20 370.10 728.50 372.90 729.60 376.30 C 731.80 374.10 735.60 374.20 738.20 376.00 C 740.80 377.80 742.30 380.70 743.30 383.60 C 745.40 389.20 745.80 395.40 744.70 401.30 C 743.50 407.20 740.30 412.50 735.70 416.40 C 731.40 419.70 726.30 421.70 721.00 422.20 C 715.70 422.80 710.30 422.50 705.00 421.50"
    fill="#2f2e41" fill-rule="nonzero" node-id="125" stroke="none" target-height="56.99994" target-width="63.740723"
    target-x="681.5" target-y="365.5"></path>
  <path
    d="M 668.00 640.00 C 671.20 636.50 671.00 631.10 667.50 627.90 C 667.10 627.60 666.70 627.30 666.30 627.00 L 673.30 597.40 L 658.40 602.80 L 654.00 630.10 C 651.70 634.30 653.20 639.50 657.40 641.80 C 661.00 643.60 665.30 642.90 668.00 640.00 L 668.00 640.00 Z"
    fill="#9e616a" fill-rule="nonzero" node-id="127" stroke="none" target-height="45.37964" target-width="20.374084"
    target-x="652.9259" target-y="597.4"></path>
  <path
    d="M 688.40 459.60 L 679.90 459.60 C 679.90 459.60 670.50 466.40 671.40 474.10 C 672.30 481.80 662.00 548.20 662.00 556.70 C 662.00 565.20 658.60 567.80 658.60 572.90 C 658.60 578.00 660.30 581.40 658.60 584.00 C 656.90 586.60 653.50 601.90 654.30 607.90 C 654.80 611.90 654.80 615.90 654.30 619.80 L 669.60 619.80 C 669.60 619.80 684.90 567.80 688.30 565.30 C 691.30 563.00 693.10 559.60 693.40 555.90 C 693.40 553.30 691.70 553.30 696.00 549.90 C 700.30 546.50 697.70 531.20 697.70 531.20 L 703.70 515.90 L 688.40 459.60 Z"
    fill="#e4e4e4" fill-rule="nonzero" node-id="129" stroke="none" target-height="160.19998" target-width="49.516846"
    target-x="654.18317" target-y="459.6"></path>
  <path
    d="M 929.40 853.30 L 462.10 853.30 C 461.40 853.30 460.90 852.80 460.90 852.10 C 460.90 851.40 461.40 850.90 462.10 850.90 C 462.10 850.90 462.10 850.90 462.10 850.90 L 929.40 850.90 C 930.10 850.90 930.60 851.40 930.60 852.10 C 930.60 852.80 930.10 853.30 929.40 853.30 C 929.40 853.30 929.40 853.30 929.40 853.30 Z"
    fill="#cacaca" fill-rule="nonzero" node-id="131" stroke="none" target-height="2.3999634" target-width="469.69998"
    target-x="460.9" target-y="850.9"></path>
</svg>
