<svg height="1024" legacy-metrics="false" node-id="1" sillyvg="true" template-height="1024" template-width="1024" version="1.1" viewBox="0 0 1024 1024" width="1024" xmlns="http://www.w3.org/2000/svg" xmlns:xlink="http://www.w3.org/1999/xlink"><defs node-id="51"></defs><path d="M 860.80 441.20 C 860.80 559.80 784.60 660.60 678.50 697.30 C 635.80 712.00 590.10 715.90 545.50 708.60 C 541.30 707.90 537.10 707.10 532.90 706.20 C 527.30 705.00 521.70 703.60 516.10 702.10 C 402.30 670.00 318.80 565.30 318.80 441.20 C 318.80 291.50 440.10 170.20 589.80 170.20 C 739.50 170.20 860.80 291.50 860.80 441.20 Z" fill="#e6e6e6" fill-rule="nonzero" node-id="53" stroke="none" target-height="541.9815" target-width="542" target-x="318.8" target-y="170.2"></path><path d="M 420.00 524.80 C 419.00 525.30 418.60 526.60 419.20 527.60 L 521.10 718.40 C 521.60 719.40 522.90 719.80 523.90 719.20 L 667.90 642.30 C 668.90 641.80 669.30 640.50 668.70 639.50 L 566.80 448.80 C 566.30 447.80 565.00 447.40 564.00 448.00 L 420.00 524.80 Z" fill="#3f3d56" fill-rule="nonzero" node-id="55" stroke="none" target-height="271.73938" target-width="250.03925" target-x="418.93036" target-y="447.73035"></path><path d="M 433.40 530.40 L 526.70 705.00 L 654.50 636.80 L 561.30 462.20 L 433.40 530.40 Z M 425.30 534.70 L 425.30 534.70 L 425.30 534.70 L 425.30 534.70 Z" fill="#ffffff" fill-rule="nonzero" node-id="57" stroke="none" target-height="242.79999" target-width="229.20001" target-x="425.3" target-y="462.2"></path><path d="M 465.60 549.60 C 463.60 550.70 463.20 553.80 464.70 556.50 C 466.20 559.20 469.00 560.60 471.00 559.60 L 564.60 509.60 C 566.60 508.50 567.00 505.40 565.50 502.70 C 564.00 500.00 561.20 498.60 559.20 499.60 L 465.60 549.60 Z" fill="#c5a47a" fill-rule="nonzero" node-id="59" stroke="none" target-height="60.595673" target-width="102.565796" target-x="463.81708" target-y="499.30215"></path><path d="M 477.20 571.20 C 475.20 572.30 474.80 575.40 476.30 578.10 C 477.80 580.80 480.60 582.20 482.60 581.20 L 576.20 531.20 C 578.20 530.10 578.60 527.00 577.10 524.30 C 575.60 521.60 572.80 520.20 570.80 521.20 L 477.20 571.20 Z" fill="#c5a47a" fill-rule="nonzero" node-id="61" stroke="none" target-height="60.595703" target-width="102.56592" target-x="475.417" target-y="520.90216"></path><path d="M 488.70 592.80 C 486.70 593.90 486.30 597.00 487.80 599.70 C 489.30 602.40 492.10 603.80 494.10 602.80 L 587.70 552.80 C 589.70 551.70 590.10 548.60 588.60 545.90 C 587.10 543.20 584.30 541.80 582.30 542.80 L 488.70 592.80 Z" fill="#c5a47a" fill-rule="nonzero" node-id="63" stroke="none" target-height="60.595703" target-width="102.56589" target-x="486.91702" target-y="542.50214"></path><path d="M 500.20 614.40 C 498.20 615.50 497.80 618.60 499.30 621.30 C 500.80 624.00 503.60 625.40 505.60 624.40 L 599.20 574.40 C 601.20 573.30 601.60 570.20 600.10 567.50 C 598.60 564.80 595.80 563.40 593.80 564.40 L 500.20 614.40 Z" fill="#c5a47a" fill-rule="nonzero" node-id="65" stroke="none" target-height="60.595642" target-width="102.56592" target-x="498.41705" target-y="564.1022"></path><path d="M 511.80 636.00 C 509.80 637.10 509.40 640.20 510.90 642.90 C 512.40 645.60 515.20 647.00 517.20 646.00 L 610.80 596.00 C 612.80 594.90 613.20 591.80 611.70 589.10 C 610.20 586.40 607.40 585.00 605.40 586.00 L 511.80 636.00 Z" fill="#c5a47a" fill-rule="nonzero" node-id="67" stroke="none" target-height="60.595703" target-width="102.56601" target-x="510.017" target-y="585.70215"></path><path d="M 530.00 442.40 L 614.80 447.50 L 638.60 376.70 L 564.10 361.00 Z" fill="#2f2e41" fill-rule="nonzero" node-id="69" stroke="none" target-height="86.5" target-width="108.599976" target-x="530" target-y="361"></path><path d="M 625.00 390.50 C 625.00 409.22 609.82 424.40 591.10 424.40 C 572.38 424.40 557.20 409.22 557.20 390.50 C 557.20 371.78 572.38 356.60 591.10 356.60 C 609.82 356.60 625.00 371.78 625.00 390.50 Z" fill="#ffb8b8" fill-rule="nonzero" node-id="71" stroke="none" target-height="67.79999" target-width="67.79999" target-x="557.2" target-y="356.6"></path><path d="M 678.30 694.70 L 678.50 697.30 C 635.80 712.00 590.10 715.90 545.50 708.60 L 532.90 706.20 L 544.90 679.60 L 552.80 662.20 L 550.00 601.90 L 549.70 595.70 L 549.30 587.70 L 554.40 587.70 L 590.80 587.50 L 625.50 587.30 L 630.80 587.30 C 663.90 628.00 691.30 661.10 678.30 694.70 Z" fill="#2f2e41" fill-rule="nonzero" node-id="73" stroke="none" target-height="124.88153" target-width="148.65527" target-x="532.9" target-y="587.3"></path><path d="M 630.30 586.70 L 549.30 595.70 L 546.30 539.70 C 536.80 515.50 543.10 493.80 562.80 474.40 L 566.80 458.50 C 568.90 450.00 575.60 443.40 584.20 441.40 L 584.20 441.40 C 597.50 433.80 612.50 430.20 629.30 430.70 L 629.30 430.70 C 643.10 436.10 651.80 449.90 650.60 464.70 C 647.10 508.70 640.80 549.90 630.30 586.70 Z" fill="#c5a47a" fill-rule="nonzero" node-id="75" stroke="none" target-height="165" target-width="108.71228" target-x="541.97473" target-y="430.7"></path><path d="M 565.50 350.40 C 565.50 350.40 548.00 356.80 547.50 380.10 C 547.50 384.00 548.00 387.90 549.10 391.70 C 550.20 396.00 551.20 405.30 543.50 417.60 C 538.50 425.60 534.00 433.90 530.00 442.50 L 530.00 442.50 L 549.80 444.40 L 553.10 411.70 C 554.70 395.80 558.60 380.30 564.70 365.50 L 564.80 365.20 C 564.80 365.20 573.90 381.00 591.10 380.50 L 584.80 374.50 C 584.80 374.50 606.40 382.60 618.10 384.30 C 622.20 384.90 625.00 388.60 624.40 392.70 C 624.20 394.20 623.50 395.60 622.50 396.70 C 622.40 396.80 622.40 396.90 622.30 396.90 C 615.10 404.50 600.80 422.10 609.80 435.40 C 618.80 448.70 611.50 452.60 611.50 452.60 L 624.80 444.80 L 630.80 440.90 L 630.90 445.80 L 662.80 441.20 C 662.80 441.20 671.40 439.70 652.30 419.30 C 652.30 419.30 647.20 411.30 649.10 404.30 C 650.70 398.90 651.00 393.30 650.00 387.70 C 645.30 364.80 627.80 319.40 565.50 350.40 Z" fill="#2f2e41" fill-rule="nonzero" node-id="77" stroke="none" target-height="112.67822" target-width="134.72699" target-x="530" target-y="339.92178"></path><path d="M 711.80 844.30 C 711.80 848.17 657.18 851.30 589.80 851.30 C 522.42 851.30 467.80 848.17 467.80 844.30 C 467.80 840.43 522.42 837.30 589.80 837.30 C 657.18 837.30 711.80 840.43 711.80 844.30 Z" fill="#e6e6e6" fill-rule="nonzero" node-id="79" stroke="none" target-height="14" target-width="244" target-x="467.8" target-y="837.3"></path><path d="M 133.40 492.70 C 132.90 492.80 132.50 493.40 132.70 493.90 L 160.00 596.40 C 160.10 596.90 160.70 597.30 161.20 597.10 L 238.50 576.50 C 239.00 576.40 239.40 575.80 239.20 575.30 L 211.90 472.90 C 211.80 472.40 211.20 472.00 210.70 472.20 L 133.40 492.70 Z" fill="#f2f2f2" fill-rule="nonzero" node-id="81" stroke="none" target-height="124.99072" target-width="106.59071" target-x="132.65463" target-y="472.15466"></path><path d="M 152.40 509.60 C 151.30 509.90 150.80 511.30 151.20 512.80 C 151.60 514.30 152.80 515.20 153.80 515.00 L 204.00 501.60 C 205.10 501.30 205.60 499.90 205.20 498.40 C 204.80 496.90 203.60 496.00 202.60 496.20 L 152.40 509.60 Z" fill="#ffffff" fill-rule="nonzero" node-id="83" stroke="none" target-height="18.799988" target-width="54.270508" target-x="151.06474" target-y="496.2"></path><path d="M 155.50 521.20 C 154.40 521.50 153.90 522.90 154.30 524.40 C 154.70 525.90 155.90 526.80 156.90 526.60 L 207.10 513.20 C 208.20 512.90 208.70 511.50 208.30 510.00 C 207.90 508.50 206.70 507.60 205.70 507.80 L 155.50 521.20 Z" fill="#ffffff" fill-rule="nonzero" node-id="85" stroke="none" target-height="18.799988" target-width="54.270523" target-x="154.16472" target-y="507.8"></path><path d="M 158.60 532.80 C 157.50 533.10 157.00 534.50 157.40 536.00 C 157.80 537.50 159.00 538.40 160.00 538.20 L 210.20 524.80 C 211.30 524.50 211.80 523.10 211.40 521.60 C 211.00 520.10 209.80 519.20 208.80 519.40 L 158.60 532.80 Z" fill="#ffffff" fill-rule="nonzero" node-id="87" stroke="none" target-height="18.799988" target-width="54.27054" target-x="157.26472" target-y="519.4"></path><path d="M 161.70 544.40 C 160.60 544.70 160.10 546.10 160.50 547.60 C 160.90 549.10 162.10 550.00 163.10 549.80 L 213.30 536.40 C 214.40 536.10 214.90 534.70 214.50 533.20 C 214.10 531.70 212.90 530.80 211.90 531.00 L 161.70 544.40 Z" fill="#ffffff" fill-rule="nonzero" node-id="89" stroke="none" target-height="18.799988" target-width="54.270523" target-x="160.36473" target-y="531"></path><path d="M 164.70 556.00 C 163.60 556.30 163.10 557.70 163.50 559.20 C 163.90 560.70 165.10 561.60 166.10 561.40 L 216.30 548.00 C 217.40 547.70 217.90 546.30 217.50 544.80 C 217.10 543.30 215.90 542.40 214.90 542.60 L 164.70 556.00 Z" fill="#ffffff" fill-rule="nonzero" node-id="91" stroke="none" target-height="18.800049" target-width="54.270508" target-x="163.36475" target-y="542.6"></path><path d="M 167.80 567.60 C 166.70 567.90 166.20 569.30 166.60 570.80 C 167.00 572.30 168.20 573.20 169.20 573.00 L 219.40 559.60 C 220.50 559.30 221.00 557.90 220.60 556.40 C 220.20 554.90 219.00 554.00 218.00 554.20 L 167.80 567.60 Z" fill="#ffffff" fill-rule="nonzero" node-id="93" stroke="none" target-height="18.799988" target-width="54.270523" target-x="166.46474" target-y="554.2"></path><path d="M 330.90 853.60 C 330.90 853.70 331.30 853.80 331.90 853.80 L 437.90 853.80 C 438.50 853.80 438.90 853.70 438.90 853.60 L 438.90 835.10 C 438.90 835.00 438.50 834.90 437.90 834.90 L 331.90 834.90 C 331.30 834.90 330.90 835.00 330.90 835.10 L 330.90 853.60 Z" fill="#f2f2f2" fill-rule="nonzero" node-id="95" stroke="none" target-height="18.899963" target-width="108" target-x="330.9" target-y="834.9"></path><path d="M 352.20 850.40 C 352.20 850.70 353.40 850.90 355.00 850.90 C 356.60 850.90 357.80 850.70 357.80 850.40 L 357.80 838.40 C 357.80 838.10 356.60 837.90 355.00 837.90 C 353.40 837.90 352.20 838.10 352.20 838.40 L 352.20 850.40 Z" fill="#ffffff" fill-rule="nonzero" node-id="97" stroke="none" target-height="13" target-width="5.5999756" target-x="352.2" target-y="837.9"></path><path d="M 364.20 850.40 C 364.20 850.70 365.40 850.90 367.00 850.90 C 368.60 850.90 369.80 850.70 369.80 850.40 L 369.80 838.40 C 369.80 838.10 368.60 837.90 367.00 837.90 C 365.40 837.90 364.20 838.10 364.20 838.40 L 364.20 850.40 Z" fill="#ffffff" fill-rule="nonzero" node-id="99" stroke="none" target-height="13" target-width="5.5999756" target-x="364.2" target-y="837.9"></path><path d="M 376.20 850.40 C 376.20 850.70 377.40 850.90 379.00 850.90 C 380.60 850.90 381.80 850.70 381.80 850.40 L 381.80 838.40 C 381.80 838.10 380.60 837.90 379.00 837.90 C 377.40 837.90 376.20 838.10 376.20 838.40 L 376.20 850.40 Z" fill="#ffffff" fill-rule="nonzero" node-id="101" stroke="none" target-height="13" target-width="5.5999756" target-x="376.2" target-y="837.9"></path><path d="M 388.20 850.40 C 388.20 850.70 389.40 850.90 391.00 850.90 C 392.60 850.90 393.80 850.70 393.80 850.40 L 393.80 838.40 C 393.80 838.10 392.60 837.90 391.00 837.90 C 389.40 837.90 388.20 838.10 388.20 838.40 L 388.20 850.40 Z" fill="#ffffff" fill-rule="nonzero" node-id="103" stroke="none" target-height="13" target-width="5.5999756" target-x="388.2" target-y="837.9"></path><path d="M 400.20 850.40 C 400.20 850.70 401.40 850.90 403.00 850.90 C 404.60 850.90 405.80 850.70 405.80 850.40 L 405.80 838.40 C 405.80 838.10 404.60 837.90 403.00 837.90 C 401.40 837.90 400.20 838.10 400.20 838.40 L 400.20 850.40 Z" fill="#ffffff" fill-rule="nonzero" node-id="105" stroke="none" target-height="13" target-width="5.5999756" target-x="400.2" target-y="837.9"></path><path d="M 412.20 850.40 C 412.20 850.70 413.40 850.90 415.00 850.90 C 416.60 850.90 417.80 850.70 417.80 850.40 L 417.80 838.40 C 417.80 838.10 416.60 837.90 415.00 837.90 C 413.40 837.90 412.20 838.10 412.20 838.40 L 412.20 850.40 Z" fill="#ffffff" fill-rule="nonzero" node-id="107" stroke="none" target-height="13" target-width="5.5999756" target-x="412.2" target-y="837.9"></path><path d="M 136.20 418.80 C 135.70 419.10 135.50 419.70 135.80 420.20 L 185.70 513.70 C 186.00 514.20 186.60 514.40 187.10 514.10 L 257.70 476.40 C 258.20 476.10 258.40 475.50 258.10 475.00 L 208.20 381.50 C 207.90 381.00 207.30 380.80 206.80 381.10 L 136.20 418.80 Z" fill="#e6e6e6" fill-rule="nonzero" node-id="109" stroke="none" target-height="133.2699" target-width="122.56996" target-x="135.66502" target-y="380.96503"></path><path d="M 142.80 421.50 L 188.50 507.10 L 251.10 473.70 L 205.40 388.10 L 142.80 421.50 Z M 138.80 423.60 L 138.80 423.60 L 138.80 423.60 L 138.80 423.60 Z" fill="#ffffff" fill-rule="nonzero" node-id="111" stroke="none" target-height="119" target-width="112.3" target-x="138.8" target-y="388.1"></path><path d="M 158.60 430.90 C 157.60 431.40 157.40 432.90 158.10 434.30 C 158.80 435.70 160.20 436.30 161.20 435.80 L 207.10 411.30 C 208.10 410.80 208.30 409.30 207.60 407.90 C 206.90 406.50 205.50 405.90 204.50 406.40 L 158.60 430.90 Z" fill="#c5a47a" fill-rule="nonzero" node-id="113" stroke="none" target-height="29.747345" target-width="50.27501" target-x="157.7125" target-y="406.22632"></path><path d="M 164.20 441.50 C 163.20 442.00 163.00 443.50 163.70 444.90 C 164.40 446.30 165.80 446.90 166.80 446.40 L 212.70 421.90 C 213.70 421.40 213.90 419.90 213.20 418.50 C 212.50 417.10 211.10 416.50 210.10 417.00 L 164.20 441.50 Z" fill="#c5a47a" fill-rule="nonzero" node-id="115" stroke="none" target-height="29.747345" target-width="50.274994" target-x="163.3125" target-y="416.82632"></path><path d="M 169.90 452.10 C 168.90 452.60 168.70 454.10 169.40 455.50 C 170.10 456.90 171.50 457.50 172.50 457.00 L 218.40 432.50 C 219.40 432.00 219.60 430.50 218.90 429.10 C 218.20 427.70 216.80 427.10 215.80 427.60 L 169.90 452.10 Z" fill="#c5a47a" fill-rule="nonzero" node-id="117" stroke="none" target-height="29.747345" target-width="50.27501" target-x="169.0125" target-y="427.42633"></path><path d="M 175.50 462.70 C 174.50 463.20 174.30 464.70 175.00 466.10 C 175.70 467.50 177.10 468.10 178.10 467.60 L 224.00 443.10 C 225.00 442.60 225.20 441.10 224.50 439.70 C 223.80 438.30 222.40 437.70 221.40 438.20 L 175.50 462.70 Z" fill="#c5a47a" fill-rule="nonzero" node-id="119" stroke="none" target-height="29.747345" target-width="50.274994" target-x="174.6125" target-y="438.02634"></path><path d="M 181.20 473.30 C 180.20 473.80 180.00 475.30 180.70 476.70 C 181.40 478.10 182.80 478.70 183.80 478.20 L 229.70 453.70 C 230.70 453.20 230.90 451.70 230.20 450.30 C 229.50 448.90 228.10 448.30 227.10 448.80 L 181.20 473.30 Z" fill="#c5a47a" fill-rule="nonzero" node-id="121" stroke="none" target-height="29.747406" target-width="50.274994" target-x="180.3125" target-y="448.62628"></path><path d="M 186.80 483.90 C 185.80 484.40 185.60 485.90 186.30 487.30 C 187.00 488.70 188.40 489.30 189.40 488.80 L 235.30 464.30 C 236.30 463.80 236.50 462.30 235.80 460.90 C 235.10 459.50 233.70 458.90 232.70 459.40 L 186.80 483.90 Z" fill="#c5a47a" fill-rule="nonzero" node-id="123" stroke="none" target-height="29.747345" target-width="50.274994" target-x="185.9125" target-y="459.22632"></path><path d="M 822.00 657.70 C 821.50 657.40 820.90 657.60 820.60 658.10 L 766.70 749.40 C 766.40 749.90 766.60 750.50 767.10 750.80 L 836.00 791.50 C 836.50 791.80 837.10 791.60 837.40 791.10 L 891.30 699.80 C 891.60 699.30 891.40 698.70 890.90 698.40 L 822.00 657.70 Z" fill="#e6e6e6" fill-rule="nonzero" node-id="125" stroke="none" target-height="134.06989" target-width="124.86981" target-x="766.56506" target-y="657.56506"></path><path d="M 823.10 664.80 L 773.80 748.30 L 834.90 784.40 L 884.20 700.90 L 823.10 664.80 Z M 819.20 662.50 L 819.20 662.50 L 819.20 662.50 L 819.20 662.50 Z" fill="#ffffff" fill-rule="nonzero" node-id="127" stroke="none" target-height="121.900024" target-width="110.400024" target-x="773.8" target-y="662.5"></path><path d="M 823.20 683.20 C 822.30 682.60 820.80 683.30 820.10 684.60 C 819.40 685.90 819.50 687.40 820.40 688.00 L 865.20 714.50 C 866.10 715.10 867.60 714.40 868.30 713.10 C 869.00 711.80 868.90 710.30 868.00 709.70 L 823.20 683.20 Z" fill="#c5a47a" fill-rule="nonzero" node-id="129" stroke="none" target-height="31.733826" target-width="49.099976" target-x="819.65" target-y="682.98315"></path><path d="M 817.10 693.50 C 816.20 692.90 814.70 693.60 814.00 694.90 C 813.30 696.20 813.40 697.70 814.30 698.30 L 859.10 724.80 C 860.00 725.40 861.50 724.70 862.20 723.40 C 862.90 722.10 862.80 720.60 861.90 720.00 L 817.10 693.50 Z" fill="#c5a47a" fill-rule="nonzero" node-id="131" stroke="none" target-height="31.733948" target-width="49.099976" target-x="813.55" target-y="693.28296"></path><path d="M 811.00 703.80 C 810.10 703.20 808.60 703.90 807.90 705.20 C 807.20 706.50 807.30 708.00 808.20 708.60 L 853.00 735.00 C 853.90 735.60 855.40 734.90 856.10 733.60 C 856.80 732.30 856.70 730.80 855.80 730.20 L 811.00 703.80 Z" fill="#c5a47a" fill-rule="nonzero" node-id="133" stroke="none" target-height="31.633911" target-width="49.099976" target-x="807.45" target-y="703.58307"></path><path d="M 804.90 714.10 C 804.00 713.50 802.50 714.20 801.80 715.50 C 801.10 716.80 801.20 718.30 802.10 718.90 L 846.90 745.40 C 847.80 746.00 849.30 745.30 850.00 744.00 C 850.70 742.70 850.60 741.20 849.70 740.60 L 804.90 714.10 Z" fill="#c5a47a" fill-rule="nonzero" node-id="135" stroke="none" target-height="31.733887" target-width="49.099976" target-x="801.35004" target-y="713.88306"></path><path d="M 798.80 724.50 C 797.90 723.90 796.40 724.60 795.70 725.90 C 795.00 727.20 795.10 728.70 796.00 729.30 L 840.80 755.80 C 841.70 756.40 843.20 755.70 843.90 754.40 C 844.60 753.10 844.50 751.60 843.60 751.00 L 798.80 724.50 Z" fill="#c5a47a" fill-rule="nonzero" node-id="137" stroke="none" target-height="31.733887" target-width="49.099976" target-x="795.25" target-y="724.2831"></path><path d="M 792.70 734.80 C 791.80 734.20 790.30 734.90 789.60 736.20 C 788.90 737.50 789.00 739.00 789.90 739.60 L 834.70 766.10 C 835.60 766.70 837.10 766.00 837.80 764.70 C 838.50 763.40 838.40 761.90 837.50 761.30 L 792.70 734.80 Z" fill="#c5a47a" fill-rule="nonzero" node-id="139" stroke="none" target-height="31.733826" target-width="49.099976" target-x="789.15" target-y="734.5831"></path><path d="M 573.30 491.70 L 572.30 498.10 L 561.30 565.70 L 554.40 587.70 L 552.00 595.40 L 550.00 601.90 L 525.30 680.70 L 518.50 696.60 C 508.70 700.20 503.60 711.20 507.30 721.00 C 510.90 730.80 521.90 735.90 531.70 732.20 C 541.50 728.60 546.60 717.60 542.90 707.80 C 542.30 706.30 541.60 704.90 540.70 703.60 L 589.00 591.30 L 590.80 587.50 L 596.30 575.70 L 606.70 497.60 L 607.30 492.70 L 573.30 491.70 Z" fill="#ffb8b8" fill-rule="nonzero" node-id="141" stroke="none" target-height="241.71356" target-width="101.21362" target-x="506.08636" target-y="491.7"></path><path d="M 613.30 499.70 C 597.60 494.10 582.50 493.50 568.30 499.70 L 572.90 459.50 C 572.50 449.10 580.60 440.30 591.10 439.70 L 591.10 439.70 C 601.70 439.10 610.70 447.30 611.30 457.80 L 611.30 457.90 L 613.30 499.70 Z" fill="#c5a47a" fill-rule="nonzero" node-id="143" stroke="none" target-height="60" target-width="45" target-x="568.3" target-y="439.7"></path></svg>
