<svg height="1024" legacy-metrics="false" node-id="1" sillyvg="true" template-height="1024" template-width="1024" version="1.1" viewBox="0 0 1024 1024" width="1024" xmlns="http://www.w3.org/2000/svg" xmlns:xlink="http://www.w3.org/1999/xlink"><defs node-id="110"></defs><path d="M 801.00 512.00 C 801.10 580.20 777.00 646.30 732.90 698.30 C 731.30 700.20 729.70 702.10 728.00 703.90 C 708.50 725.90 685.70 744.70 660.50 759.90 C 654.70 763.40 648.80 766.60 642.80 769.70 C 642.20 770.00 641.60 770.30 641.00 770.60 C 640.30 771.00 639.50 771.30 638.80 771.70 C 623.50 779.20 607.60 785.30 591.30 789.90 C 589.60 790.40 587.90 790.80 586.20 791.30 C 564.70 797.00 542.60 800.20 520.40 800.80 C 519.20 800.80 518.10 800.80 517.00 800.90 C 516.60 800.90 516.20 800.90 515.80 800.90 C 514.60 800.90 513.30 800.90 512.10 800.90 C 488.70 800.90 465.30 798.10 442.60 792.50 C 440.30 791.90 438.10 791.40 435.80 790.70 C 423.90 787.50 412.20 783.40 400.80 778.70 C 394.80 776.20 388.90 773.50 383.10 770.60 C 381.80 769.90 380.50 769.30 379.20 768.60 C 378.70 768.30 378.10 768.00 377.60 767.80 C 346.80 751.50 319.10 729.80 296.00 703.70 C 294.40 701.90 292.80 700.10 291.30 698.30 C 188.40 576.30 203.90 393.90 325.90 291.00 C 330.80 286.90 335.80 283.00 340.90 279.20 C 342.50 278.00 344.20 276.80 345.90 275.60 C 346.20 275.40 346.60 275.10 346.90 274.90 C 376.20 254.30 409.20 239.50 444.00 231.00 C 446.00 230.50 448.00 230.10 450.00 229.60 C 487.70 221.30 526.70 220.70 564.70 227.60 C 566.70 228.00 568.70 228.40 570.70 228.80 C 605.20 235.90 638.10 249.20 667.80 268.20 C 668.50 268.60 669.10 269.00 669.80 269.50 C 671.10 270.40 672.50 271.20 673.80 272.10 C 753.20 325.90 801.10 415.80 801.00 512.00 Z" fill="#f2f2f2" fill-rule="nonzero" node-id="112" stroke="none" target-height="578" target-width="577.7254" target-x="223.2746" target-y="222.9"></path><path d="M 439.00 661.50 L 346.60 669.70 L 345.60 669.80 L 345.60 275.70 C 345.90 275.50 346.30 275.20 346.60 275.00 C 365.90 261.50 386.70 250.50 408.60 242.10 L 413.30 307.20 L 413.70 313.20 L 418.40 377.80 L 419.80 397.70 L 438.70 659.40 L 439.00 661.50 Z" fill="#cccccc" fill-rule="nonzero" node-id="114" stroke="none" target-height="427.69998" target-width="93.399994" target-x="345.6" target-y="242.1"></path><path d="M 667.40 268.30 C 668.10 268.70 668.70 269.10 669.40 269.60 L 669.40 669.80 L 667.40 669.60 L 576.00 661.50 L 576.20 659.20 L 595.10 397.50 L 596.50 377.60 L 601.20 313.00 L 601.60 307.00 L 606.60 238.70 C 628.00 246.30 648.40 256.10 667.40 268.30 Z" fill="#cccccc" fill-rule="nonzero" node-id="116" stroke="none" target-height="431.09998" target-width="93.400024" target-x="576" target-y="238.7"></path><path d="M 667.40 268.30 L 667.40 675.20 C 667.40 683.00 662.00 689.40 655.40 689.40 L 358.60 689.40 C 353.10 689.40 348.50 685.00 347.10 679.10 C 346.80 677.80 346.60 676.50 346.60 675.30 L 346.60 275.00 C 346.30 275.20 345.90 275.50 345.60 275.70 C 343.90 276.90 342.30 278.10 340.60 279.30 L 340.60 675.30 C 340.50 681.20 342.70 687.00 346.80 691.30 C 348.90 693.50 351.60 695.10 354.60 696.00 C 355.90 696.40 357.20 696.50 358.60 696.50 L 655.40 696.50 C 656.80 696.50 658.10 696.30 659.40 696.00 C 667.40 693.80 673.40 685.40 673.40 675.30 L 673.40 272.30 C 672.10 271.40 670.80 270.50 669.40 269.70 C 668.80 269.20 668.10 268.70 667.40 268.30 Z" fill="#cccccc" fill-rule="nonzero" node-id="118" stroke="none" target-height="428.2" target-width="332.80002" target-x="340.6" target-y="268.3"></path><path d="M 343.70 307.10 L 670.50 307.10 L 670.50 313.10 L 343.70 313.10 Z" fill="#cccccc" fill-rule="nonzero" node-id="120" stroke="none" target-height="6" target-width="326.8" target-x="343.7" target-y="307.1"></path><path d="M 443.70 231.10 C 445.70 230.60 447.70 230.20 449.70 229.70 L 449.70 391.50 L 443.70 391.50 L 443.70 231.10 Z" fill="#cccccc" fill-rule="nonzero" node-id="122" stroke="none" target-height="161.8" target-width="6" target-x="443.7" target-y="229.7"></path><path d="M 564.40 227.70 C 566.40 228.10 568.40 228.50 570.40 228.90 L 570.40 391.60 L 564.40 391.60 L 564.40 227.70 Z" fill="#cccccc" fill-rule="nonzero" node-id="124" stroke="none" target-height="163.90001" target-width="6" target-x="564.4" target-y="227.7"></path><path d="M 707.70 659.20 L 316.30 659.20 C 301.50 659.20 289.50 671.20 289.50 686.00 C 289.50 700.80 301.50 712.80 316.30 712.80 L 707.60 712.80 C 715.30 712.80 722.60 709.50 727.70 703.70 C 728.80 702.40 729.80 701.00 730.70 699.50 C 731.40 698.40 732.00 697.20 732.50 695.90 C 738.00 682.20 731.40 666.60 717.60 661.00 C 714.50 659.90 711.10 659.20 707.70 659.20 L 707.70 659.20 Z" fill="#cccccc" fill-rule="nonzero" node-id="126" stroke="none" target-height="53.599976" target-width="444.93286" target-x="289.5" target-y="659.2"></path><path d="M 345.60 377.60 L 670.40 377.60 L 670.40 397.50 L 345.60 397.50 Z" fill="#cccccc" fill-rule="nonzero" node-id="128" stroke="none" target-height="19.899994" target-width="324.80002" target-x="345.6" target-y="377.6"></path><path d="M 505.00 371.70 L 511.00 371.70 C 517.00 371.70 521.90 376.60 521.90 382.60 L 521.90 382.60 L 521.90 382.60 L 494.10 382.60 L 494.10 382.60 L 494.10 382.60 C 494.10 376.60 499.00 371.70 505.00 371.70 Z" fill="#cccccc" fill-rule="nonzero" node-id="130" stroke="none" target-height="10.899994" target-width="27.800018" target-x="494.1" target-y="371.7"></path><path d="M 732.90 698.30 C 724.20 708.60 714.80 718.30 704.80 727.30 L 319.20 727.30 C 309.20 718.30 299.80 708.60 291.10 698.30 L 732.90 698.30 Z" fill="#3f3d56" fill-rule="nonzero" node-id="132" stroke="none" target-height="29" target-width="441.80002" target-x="291.1" target-y="698.3"></path><path d="M 544.30 598.10 L 479.40 598.10 C 479.10 598.10 478.70 598.20 478.40 598.30 C 477.00 598.70 476.00 600.10 476.00 601.60 L 476.00 704.20 L 547.80 704.20 L 547.80 601.50 C 547.70 599.60 546.20 598.10 544.30 598.10 C 544.30 598.10 544.30 598.10 544.30 598.10 Z M 519.70 648.70 C 519.70 650.40 519.20 652.00 518.10 653.30 C 515.50 656.70 510.70 657.30 507.40 654.80 C 505.50 653.40 504.40 651.10 504.40 648.70 L 504.40 636.80 C 504.40 632.60 507.90 629.20 512.10 629.20 C 516.30 629.20 519.70 632.60 519.70 636.80 L 519.70 648.70 Z" fill="#2f2e41" fill-rule="nonzero" node-id="134" stroke="none" target-height="106.10004" target-width="71.79999" target-x="476" target-y="598.1"></path><path d="M 475.70 700.80 L 475.70 710.70 C 475.70 711.80 476.60 712.60 477.60 712.60 L 546.00 712.60 C 547.10 712.60 547.90 711.70 547.90 710.70 L 547.90 700.80 L 475.70 700.80 Z" fill="#3f3d56" fill-rule="nonzero" node-id="136" stroke="none" target-height="11.799988" target-width="72.20001" target-x="475.7" target-y="700.8"></path><path d="M 651.80 438.00 L 374.30 438.00 C 369.30 438.00 365.30 442.00 365.30 447.00 L 365.30 634.30 C 365.30 639.30 369.30 643.30 374.30 643.30 L 651.80 643.30 C 656.80 643.30 660.80 639.30 660.80 634.30 L 660.80 447.00 C 660.80 442.00 656.70 438.00 651.80 438.00 Z" fill="#3f3d56" fill-rule="nonzero" node-id="138" stroke="none" target-height="205.29999" target-width="295.5" target-x="365.3" target-y="438"></path><path d="M 649.50 444.50 L 376.60 444.50 C 373.90 444.50 371.80 446.70 371.80 449.30 L 371.80 632.00 C 371.80 634.70 374.00 636.80 376.60 636.80 L 649.50 636.80 C 652.20 636.80 654.30 634.60 654.30 632.00 L 654.30 449.30 C 654.30 446.70 652.10 444.50 649.50 444.50 Z" fill="#c5a47a" fill-rule="nonzero" node-id="140" stroke="none" target-height="192.29999" target-width="282.5" target-x="371.8" target-y="444.5"></path><path d="M 599.20 712.50 L 596.70 700.50 C 596.50 699.50 595.80 698.70 594.80 698.30 C 594.50 698.20 594.10 698.10 593.70 698.10 L 436.50 698.10 C 436.10 698.10 435.80 698.20 435.40 698.30 C 434.50 698.70 433.80 699.50 433.50 700.50 L 431.00 712.50 C 430.70 714.10 431.70 715.70 433.30 716.00 C 433.50 716.00 433.70 716.10 433.90 716.10 L 596.20 716.10 C 597.10 716.10 598.00 715.70 598.50 715.00 C 599.20 714.30 599.40 713.40 599.20 712.50 Z" fill="#2f2e41" fill-rule="nonzero" node-id="142" stroke="none" target-height="18" target-width="168.2666" target-x="431" target-y="698.1"></path><path d="M 438.10 700.30 L 442.10 700.30 C 442.40 700.30 442.60 700.50 442.60 700.80 L 442.60 702.80 C 442.60 703.10 442.40 703.30 442.10 703.30 L 438.10 703.30 C 437.80 703.30 437.60 703.10 437.60 702.80 L 437.60 700.80 C 437.60 700.50 437.90 700.30 438.10 700.30 Z" fill="#3f3d56" fill-rule="nonzero" node-id="144" stroke="none" target-height="3" target-width="5" target-x="437.6" target-y="700.3"></path><path d="M 448.10 700.30 L 452.10 700.30 C 452.40 700.30 452.60 700.50 452.60 700.80 L 452.60 702.80 C 452.60 703.10 452.40 703.30 452.10 703.30 L 448.10 703.30 C 447.80 703.30 447.60 703.10 447.60 702.80 L 447.60 700.80 C 447.60 700.50 447.90 700.30 448.10 700.30 Z" fill="#3f3d56" fill-rule="nonzero" node-id="146" stroke="none" target-height="3" target-width="5" target-x="447.6" target-y="700.3"></path><path d="M 458.10 700.30 L 462.10 700.30 C 462.40 700.30 462.60 700.50 462.60 700.80 L 462.60 702.80 C 462.60 703.10 462.40 703.30 462.10 703.30 L 458.10 703.30 C 457.80 703.30 457.60 703.10 457.60 702.80 L 457.60 700.80 C 457.60 700.50 457.90 700.30 458.10 700.30 Z" fill="#3f3d56" fill-rule="nonzero" node-id="148" stroke="none" target-height="3" target-width="5" target-x="457.6" target-y="700.3"></path><path d="M 468.10 700.30 L 472.10 700.30 C 472.40 700.30 472.60 700.50 472.60 700.80 L 472.60 702.80 C 472.60 703.10 472.40 703.30 472.10 703.30 L 468.10 703.30 C 467.80 703.30 467.60 703.10 467.60 702.80 L 467.60 700.80 C 467.60 700.50 467.90 700.30 468.10 700.30 Z" fill="#3f3d56" fill-rule="nonzero" node-id="150" stroke="none" target-height="3" target-width="5" target-x="467.6" target-y="700.3"></path><path d="M 478.10 700.30 L 482.10 700.30 C 482.40 700.30 482.60 700.50 482.60 700.80 L 482.60 702.80 C 482.60 703.10 482.40 703.30 482.10 703.30 L 478.10 703.30 C 477.80 703.30 477.60 703.10 477.60 702.80 L 477.60 700.80 C 477.60 700.50 477.90 700.30 478.10 700.30 Z" fill="#3f3d56" fill-rule="nonzero" node-id="152" stroke="none" target-height="3" target-width="5" target-x="477.6" target-y="700.3"></path><path d="M 488.10 700.30 L 492.10 700.30 C 492.40 700.30 492.60 700.50 492.60 700.80 L 492.60 702.80 C 492.60 703.10 492.40 703.30 492.10 703.30 L 488.10 703.30 C 487.80 703.30 487.60 703.10 487.60 702.80 L 487.60 700.80 C 487.60 700.50 487.90 700.30 488.10 700.30 Z" fill="#3f3d56" fill-rule="nonzero" node-id="154" stroke="none" target-height="3" target-width="5" target-x="487.6" target-y="700.3"></path><path d="M 498.10 700.30 L 502.10 700.30 C 502.40 700.30 502.60 700.50 502.60 700.80 L 502.60 702.80 C 502.60 703.10 502.40 703.30 502.10 703.30 L 498.10 703.30 C 497.80 703.30 497.60 703.10 497.60 702.80 L 497.60 700.80 C 497.60 700.50 497.90 700.30 498.10 700.30 Z" fill="#3f3d56" fill-rule="nonzero" node-id="156" stroke="none" target-height="3" target-width="5" target-x="497.6" target-y="700.3"></path><path d="M 508.10 700.30 L 512.10 700.30 C 512.40 700.30 512.60 700.50 512.60 700.80 L 512.60 702.80 C 512.60 703.10 512.40 703.30 512.10 703.30 L 508.10 703.30 C 507.80 703.30 507.60 703.10 507.60 702.80 L 507.60 700.80 C 507.60 700.50 507.90 700.30 508.10 700.30 Z" fill="#3f3d56" fill-rule="nonzero" node-id="158" stroke="none" target-height="3" target-width="4.9999695" target-x="507.6" target-y="700.3"></path><path d="M 518.10 700.30 L 522.10 700.30 C 522.40 700.30 522.60 700.50 522.60 700.80 L 522.60 702.80 C 522.60 703.10 522.40 703.30 522.10 703.30 L 518.10 703.30 C 517.80 703.30 517.60 703.10 517.60 702.80 L 517.60 700.80 C 517.60 700.50 517.90 700.30 518.10 700.30 Z" fill="#3f3d56" fill-rule="nonzero" node-id="160" stroke="none" target-height="3" target-width="5" target-x="517.6" target-y="700.3"></path><path d="M 528.10 700.30 L 532.10 700.30 C 532.40 700.30 532.60 700.50 532.60 700.80 L 532.60 702.80 C 532.60 703.10 532.40 703.30 532.10 703.30 L 528.10 703.30 C 527.80 703.30 527.60 703.10 527.60 702.80 L 527.60 700.80 C 527.60 700.50 527.90 700.30 528.10 700.30 Z" fill="#3f3d56" fill-rule="nonzero" node-id="162" stroke="none" target-height="3" target-width="5" target-x="527.6" target-y="700.3"></path><path d="M 538.10 700.30 L 542.10 700.30 C 542.40 700.30 542.60 700.50 542.60 700.80 L 542.60 702.80 C 542.60 703.10 542.40 703.30 542.10 703.30 L 538.10 703.30 C 537.80 703.30 537.60 703.10 537.60 702.80 L 537.60 700.80 C 537.60 700.50 537.90 700.30 538.10 700.30 Z" fill="#3f3d56" fill-rule="nonzero" node-id="164" stroke="none" target-height="3" target-width="5" target-x="537.6" target-y="700.3"></path><path d="M 548.10 700.30 L 552.10 700.30 C 552.40 700.30 552.60 700.50 552.60 700.80 L 552.60 702.80 C 552.60 703.10 552.40 703.30 552.10 703.30 L 548.10 703.30 C 547.80 703.30 547.60 703.10 547.60 702.80 L 547.60 700.80 C 547.60 700.50 547.90 700.30 548.10 700.30 Z" fill="#3f3d56" fill-rule="nonzero" node-id="166" stroke="none" target-height="3" target-width="5" target-x="547.6" target-y="700.3"></path><path d="M 558.10 700.30 L 562.10 700.30 C 562.40 700.30 562.60 700.50 562.60 700.80 L 562.60 702.80 C 562.60 703.10 562.40 703.30 562.10 703.30 L 558.10 703.30 C 557.80 703.30 557.60 703.10 557.60 702.80 L 557.60 700.80 C 557.60 700.50 557.90 700.30 558.10 700.30 Z" fill="#3f3d56" fill-rule="nonzero" node-id="168" stroke="none" target-height="3" target-width="5" target-x="557.6" target-y="700.3"></path><path d="M 568.10 700.30 L 572.10 700.30 C 572.40 700.30 572.60 700.50 572.60 700.80 L 572.60 702.80 C 572.60 703.10 572.40 703.30 572.10 703.30 L 568.10 703.30 C 567.80 703.30 567.60 703.10 567.60 702.80 L 567.60 700.80 C 567.60 700.50 567.90 700.30 568.10 700.30 Z" fill="#3f3d56" fill-rule="nonzero" node-id="170" stroke="none" target-height="3" target-width="5" target-x="567.6" target-y="700.3"></path><path d="M 578.10 700.30 L 582.10 700.30 C 582.40 700.30 582.60 700.50 582.60 700.80 L 582.60 702.80 C 582.60 703.10 582.40 703.30 582.10 703.30 L 578.10 703.30 C 577.80 703.30 577.60 703.10 577.60 702.80 L 577.60 700.80 C 577.60 700.50 577.90 700.30 578.10 700.30 Z" fill="#3f3d56" fill-rule="nonzero" node-id="172" stroke="none" target-height="3" target-width="5" target-x="577.6" target-y="700.3"></path><path d="M 588.10 700.30 L 592.10 700.30 C 592.40 700.30 592.60 700.50 592.60 700.80 L 592.60 702.80 C 592.60 703.10 592.40 703.30 592.10 703.30 L 588.10 703.30 C 587.80 703.30 587.60 703.10 587.60 702.80 L 587.60 700.80 C 587.60 700.50 587.90 700.30 588.10 700.30 Z" fill="#3f3d56" fill-rule="nonzero" node-id="174" stroke="none" target-height="3" target-width="5" target-x="587.6" target-y="700.3"></path><path d="M 438.00 705.30 L 442.00 705.30 C 442.30 705.30 442.50 705.50 442.50 705.80 L 442.50 707.80 C 442.50 708.10 442.30 708.30 442.00 708.30 L 438.00 708.30 C 437.70 708.30 437.50 708.10 437.50 707.80 L 437.50 705.80 C 437.50 705.50 437.70 705.30 438.00 705.30 Z" fill="#3f3d56" fill-rule="nonzero" node-id="176" stroke="none" target-height="3" target-width="5" target-x="437.5" target-y="705.3"></path><path d="M 448.00 705.30 L 452.00 705.30 C 452.30 705.30 452.50 705.50 452.50 705.80 L 452.50 707.80 C 452.50 708.10 452.30 708.30 452.00 708.30 L 448.00 708.30 C 447.70 708.30 447.50 708.10 447.50 707.80 L 447.50 705.80 C 447.50 705.50 447.70 705.30 448.00 705.30 Z" fill="#3f3d56" fill-rule="nonzero" node-id="178" stroke="none" target-height="3" target-width="5" target-x="447.5" target-y="705.3"></path><path d="M 458.00 705.30 L 462.00 705.30 C 462.30 705.30 462.50 705.50 462.50 705.80 L 462.50 707.80 C 462.50 708.10 462.30 708.30 462.00 708.30 L 458.00 708.30 C 457.70 708.30 457.50 708.10 457.50 707.80 L 457.50 705.80 C 457.50 705.50 457.70 705.30 458.00 705.30 Z" fill="#3f3d56" fill-rule="nonzero" node-id="180" stroke="none" target-height="3" target-width="5" target-x="457.5" target-y="705.3"></path><path d="M 468.00 705.30 L 472.00 705.30 C 472.30 705.30 472.50 705.50 472.50 705.80 L 472.50 707.80 C 472.50 708.10 472.30 708.30 472.00 708.30 L 468.00 708.30 C 467.70 708.30 467.50 708.10 467.50 707.80 L 467.50 705.80 C 467.50 705.50 467.70 705.30 468.00 705.30 Z" fill="#3f3d56" fill-rule="nonzero" node-id="182" stroke="none" target-height="3" target-width="5" target-x="467.5" target-y="705.3"></path><path d="M 478.00 705.30 L 482.00 705.30 C 482.30 705.30 482.50 705.50 482.50 705.80 L 482.50 707.80 C 482.50 708.10 482.30 708.30 482.00 708.30 L 478.00 708.30 C 477.70 708.30 477.50 708.10 477.50 707.80 L 477.50 705.80 C 477.50 705.50 477.70 705.30 478.00 705.30 Z" fill="#3f3d56" fill-rule="nonzero" node-id="184" stroke="none" target-height="3" target-width="5" target-x="477.5" target-y="705.3"></path><path d="M 488.00 705.30 L 492.00 705.30 C 492.30 705.30 492.50 705.50 492.50 705.80 L 492.50 707.80 C 492.50 708.10 492.30 708.30 492.00 708.30 L 488.00 708.30 C 487.70 708.30 487.50 708.10 487.50 707.80 L 487.50 705.80 C 487.50 705.50 487.70 705.30 488.00 705.30 Z" fill="#3f3d56" fill-rule="nonzero" node-id="186" stroke="none" target-height="3" target-width="5" target-x="487.5" target-y="705.3"></path><path d="M 498.00 705.30 L 502.00 705.30 C 502.30 705.30 502.50 705.50 502.50 705.80 L 502.50 707.80 C 502.50 708.10 502.30 708.30 502.00 708.30 L 498.00 708.30 C 497.70 708.30 497.50 708.10 497.50 707.80 L 497.50 705.80 C 497.50 705.50 497.70 705.30 498.00 705.30 Z" fill="#3f3d56" fill-rule="nonzero" node-id="188" stroke="none" target-height="3" target-width="5" target-x="497.5" target-y="705.3"></path><path d="M 508.00 705.30 L 512.00 705.30 C 512.30 705.30 512.50 705.50 512.50 705.80 L 512.50 707.80 C 512.50 708.10 512.30 708.30 512.00 708.30 L 508.00 708.30 C 507.70 708.30 507.50 708.10 507.50 707.80 L 507.50 705.80 C 507.50 705.50 507.70 705.30 508.00 705.30 Z" fill="#3f3d56" fill-rule="nonzero" node-id="190" stroke="none" target-height="3" target-width="5" target-x="507.5" target-y="705.3"></path><path d="M 518.00 705.30 L 522.00 705.30 C 522.30 705.30 522.50 705.50 522.50 705.80 L 522.50 707.80 C 522.50 708.10 522.30 708.30 522.00 708.30 L 518.00 708.30 C 517.70 708.30 517.50 708.10 517.50 707.80 L 517.50 705.80 C 517.50 705.50 517.70 705.30 518.00 705.30 Z" fill="#3f3d56" fill-rule="nonzero" node-id="192" stroke="none" target-height="3" target-width="5" target-x="517.5" target-y="705.3"></path><path d="M 528.00 705.30 L 532.00 705.30 C 532.30 705.30 532.50 705.50 532.50 705.80 L 532.50 707.80 C 532.50 708.10 532.30 708.30 532.00 708.30 L 528.00 708.30 C 527.70 708.30 527.50 708.10 527.50 707.80 L 527.50 705.80 C 527.50 705.50 527.70 705.30 528.00 705.30 Z" fill="#3f3d56" fill-rule="nonzero" node-id="194" stroke="none" target-height="3" target-width="5" target-x="527.5" target-y="705.3"></path><path d="M 538.00 705.30 L 542.00 705.30 C 542.30 705.30 542.50 705.50 542.50 705.80 L 542.50 707.80 C 542.50 708.10 542.30 708.30 542.00 708.30 L 538.00 708.30 C 537.70 708.30 537.50 708.10 537.50 707.80 L 537.50 705.80 C 537.50 705.50 537.70 705.30 538.00 705.30 Z" fill="#3f3d56" fill-rule="nonzero" node-id="196" stroke="none" target-height="3" target-width="5" target-x="537.5" target-y="705.3"></path><path d="M 548.00 705.30 L 552.00 705.30 C 552.30 705.30 552.50 705.50 552.50 705.80 L 552.50 707.80 C 552.50 708.10 552.30 708.30 552.00 708.30 L 548.00 708.30 C 547.70 708.30 547.50 708.10 547.50 707.80 L 547.50 705.80 C 547.50 705.50 547.70 705.30 548.00 705.30 Z" fill="#3f3d56" fill-rule="nonzero" node-id="198" stroke="none" target-height="3" target-width="5" target-x="547.5" target-y="705.3"></path><path d="M 558.00 705.30 L 562.00 705.30 C 562.30 705.30 562.50 705.50 562.50 705.80 L 562.50 707.80 C 562.50 708.10 562.30 708.30 562.00 708.30 L 558.00 708.30 C 557.70 708.30 557.50 708.10 557.50 707.80 L 557.50 705.80 C 557.50 705.50 557.70 705.30 558.00 705.30 Z" fill="#3f3d56" fill-rule="nonzero" node-id="200" stroke="none" target-height="3" target-width="5" target-x="557.5" target-y="705.3"></path><path d="M 568.00 705.30 L 572.00 705.30 C 572.30 705.30 572.50 705.50 572.50 705.80 L 572.50 707.80 C 572.50 708.10 572.30 708.30 572.00 708.30 L 568.00 708.30 C 567.70 708.30 567.50 708.10 567.50 707.80 L 567.50 705.80 C 567.50 705.50 567.70 705.30 568.00 705.30 Z" fill="#3f3d56" fill-rule="nonzero" node-id="202" stroke="none" target-height="3" target-width="5" target-x="567.5" target-y="705.3"></path><path d="M 578.00 705.30 L 582.00 705.30 C 582.30 705.30 582.50 705.50 582.50 705.80 L 582.50 707.80 C 582.50 708.10 582.30 708.30 582.00 708.30 L 578.00 708.30 C 577.70 708.30 577.50 708.10 577.50 707.80 L 577.50 705.80 C 577.50 705.50 577.70 705.30 578.00 705.30 Z" fill="#3f3d56" fill-rule="nonzero" node-id="204" stroke="none" target-height="3" target-width="5" target-x="577.5" target-y="705.3"></path><path d="M 588.00 705.30 L 592.00 705.30 C 592.30 705.30 592.50 705.50 592.50 705.80 L 592.50 707.80 C 592.50 708.10 592.30 708.30 592.00 708.30 L 588.00 708.30 C 587.70 708.30 587.50 708.10 587.50 707.80 L 587.50 705.80 C 587.50 705.50 587.70 705.30 588.00 705.30 Z" fill="#3f3d56" fill-rule="nonzero" node-id="206" stroke="none" target-height="3" target-width="5" target-x="587.5" target-y="705.3"></path><path d="M 486.00 711.30 L 525.00 711.30 C 525.30 711.30 525.50 711.50 525.50 711.80 L 525.50 713.80 C 525.50 714.10 525.30 714.30 525.00 714.30 L 486.00 714.30 C 485.70 714.30 485.50 714.10 485.50 713.80 L 485.50 711.80 C 485.50 711.50 485.70 711.30 486.00 711.30 Z" fill="#3f3d56" fill-rule="nonzero" node-id="208" stroke="none" target-height="3" target-width="40" target-x="485.5" target-y="711.3"></path><path d="M 635.70 469.70 L 380.40 469.70 C 379.80 469.70 379.40 469.20 379.40 468.70 C 379.40 468.20 379.80 467.70 380.40 467.70 L 635.70 467.70 C 636.30 467.70 636.70 468.20 636.70 468.70 C 636.70 469.20 636.30 469.70 635.70 469.70 Z" fill="#3f3d56" fill-rule="nonzero" node-id="210" stroke="none" target-height="2" target-width="257.30002" target-x="379.4" target-y="467.7"></path><path d="M 403.80 456.40 C 403.80 459.77 401.11 462.50 397.80 462.50 C 394.49 462.50 391.80 459.77 391.80 456.40 C 391.80 453.03 394.49 450.30 397.80 450.30 C 401.11 450.30 403.80 453.03 403.80 456.40 Z" fill="#3f3d56" fill-rule="nonzero" node-id="212" stroke="none" target-height="12.200012" target-width="12" target-x="391.8" target-y="450.3"></path><path d="M 424.40 456.40 C 424.40 459.77 421.71 462.50 418.40 462.50 C 415.09 462.50 412.40 459.77 412.40 456.40 C 412.40 453.03 415.09 450.30 418.40 450.30 C 421.71 450.30 424.40 453.03 424.40 456.40 Z" fill="#3f3d56" fill-rule="nonzero" node-id="214" stroke="none" target-height="12.200012" target-width="12" target-x="412.4" target-y="450.3"></path><path d="M 444.90 456.40 C 444.90 459.77 442.21 462.50 438.90 462.50 C 435.59 462.50 432.90 459.77 432.90 456.40 C 432.90 453.03 435.59 450.30 438.90 450.30 C 442.21 450.30 444.90 453.03 444.90 456.40 Z" fill="#3f3d56" fill-rule="nonzero" node-id="216" stroke="none" target-height="12.200012" target-width="12" target-x="432.9" target-y="450.3"></path><path d="M 623.40 451.80 L 608.80 451.80 C 608.20 451.80 607.70 452.30 607.70 452.90 C 607.70 453.50 608.20 454.00 608.80 454.00 L 623.40 454.00 C 624.00 454.00 624.50 453.50 624.50 452.90 C 624.50 452.30 624.00 451.80 623.40 451.80 Z" fill="#3f3d56" fill-rule="nonzero" node-id="218" stroke="none" target-height="2.2000122" target-width="16.799988" target-x="607.7" target-y="451.8"></path><path d="M 623.40 456.00 L 608.80 456.00 C 608.20 456.00 607.70 456.50 607.70 457.10 C 607.70 457.70 608.20 458.20 608.80 458.20 L 623.40 458.20 C 624.00 458.20 624.50 457.70 624.50 457.10 C 624.50 456.40 624.00 456.00 623.40 456.00 Z" fill="#3f3d56" fill-rule="nonzero" node-id="220" stroke="none" target-height="2.2000122" target-width="16.799988" target-x="607.7" target-y="456"></path><path d="M 623.40 460.10 L 608.80 460.10 C 608.20 460.10 607.70 460.60 607.70 461.20 C 607.70 461.80 608.20 462.30 608.80 462.30 L 623.40 462.30 C 624.00 462.30 624.50 461.80 624.50 461.20 C 624.50 460.60 624.00 460.10 623.40 460.10 Z" fill="#3f3d56" fill-rule="nonzero" node-id="222" stroke="none" target-height="2.1999817" target-width="16.799988" target-x="607.7" target-y="460.1"></path><path d="M 397.20 493.30 L 402.40 493.30 C 404.00 493.30 405.30 494.60 405.30 496.20 L 405.30 496.20 C 405.30 497.80 404.00 499.10 402.40 499.10 L 397.20 499.10 C 395.60 499.10 394.30 497.80 394.30 496.20 L 394.30 496.20 C 394.30 494.60 395.60 493.30 397.20 493.30 Z" fill="#e6e6e6" fill-rule="nonzero" node-id="224" stroke="none" target-height="5.8000183" target-width="11" target-x="394.3" target-y="493.3"></path><path d="M 457.20 493.30 L 462.40 493.30 C 464.00 493.30 465.30 494.60 465.30 496.20 L 465.30 496.20 C 465.30 497.80 464.00 499.10 462.40 499.10 L 457.20 499.10 C 455.60 499.10 454.30 497.80 454.30 496.20 L 454.30 496.20 C 454.30 494.60 455.60 493.30 457.20 493.30 Z" fill="#e6e6e6" fill-rule="nonzero" node-id="226" stroke="none" target-height="5.8000183" target-width="11" target-x="454.3" target-y="493.3"></path><path d="M 474.20 493.30 L 479.40 493.30 C 481.00 493.30 482.30 494.60 482.30 496.20 L 482.30 496.20 C 482.30 497.80 481.00 499.10 479.40 499.10 L 474.20 499.10 C 472.60 499.10 471.30 497.80 471.30 496.20 L 471.30 496.20 C 471.30 494.60 472.60 493.30 474.20 493.30 Z" fill="#e6e6e6" fill-rule="nonzero" node-id="228" stroke="none" target-height="5.8000183" target-width="11" target-x="471.3" target-y="493.3"></path><path d="M 413.50 492.80 L 446.10 492.80 C 447.70 492.80 449.00 494.10 449.00 495.70 L 449.00 495.70 C 449.00 497.30 447.70 498.60 446.10 498.60 L 413.50 498.60 C 411.90 498.60 410.60 497.30 410.60 495.70 L 410.60 495.70 C 410.60 494.10 411.90 492.80 413.50 492.80 Z" fill="#e6e6e6" fill-rule="nonzero" node-id="230" stroke="none" target-height="5.8000183" target-width="38.399994" target-x="410.6" target-y="492.8"></path><path d="M 493.50 492.80 L 526.10 492.80 C 527.70 492.80 529.00 494.10 529.00 495.70 L 529.00 495.70 C 529.00 497.30 527.70 498.60 526.10 498.60 L 493.50 498.60 C 491.90 498.60 490.60 497.30 490.60 495.70 L 490.60 495.70 C 490.60 494.10 491.90 492.80 493.50 492.80 Z" fill="#e6e6e6" fill-rule="nonzero" node-id="232" stroke="none" target-height="5.8000183" target-width="38.399994" target-x="490.6" target-y="492.8"></path><path d="M 413.20 506.30 L 418.40 506.30 C 420.00 506.30 421.30 507.60 421.30 509.20 L 421.30 509.20 C 421.30 510.80 420.00 512.10 418.40 512.10 L 413.20 512.10 C 411.60 512.10 410.30 510.80 410.30 509.20 L 410.30 509.20 C 410.30 507.60 411.60 506.30 413.20 506.30 Z" fill="#e6e6e6" fill-rule="nonzero" node-id="234" stroke="none" target-height="5.799988" target-width="11" target-x="410.3" target-y="506.3"></path><path d="M 473.20 506.30 L 478.40 506.30 C 480.00 506.30 481.30 507.60 481.30 509.20 L 481.30 509.20 C 481.30 510.80 480.00 512.10 478.40 512.10 L 473.20 512.10 C 471.60 512.10 470.30 510.80 470.30 509.20 L 470.30 509.20 C 470.30 507.60 471.60 506.30 473.20 506.30 Z" fill="#e6e6e6" fill-rule="nonzero" node-id="236" stroke="none" target-height="5.799988" target-width="11" target-x="470.3" target-y="506.3"></path><path d="M 490.20 506.30 L 495.40 506.30 C 497.00 506.30 498.30 507.60 498.30 509.20 L 498.30 509.20 C 498.30 510.80 497.00 512.10 495.40 512.10 L 490.20 512.10 C 488.60 512.10 487.30 510.80 487.30 509.20 L 487.30 509.20 C 487.30 507.60 488.60 506.30 490.20 506.30 Z" fill="#e6e6e6" fill-rule="nonzero" node-id="238" stroke="none" target-height="5.799988" target-width="11" target-x="487.3" target-y="506.3"></path><path d="M 429.50 505.80 L 462.10 505.80 C 463.70 505.80 465.00 507.10 465.00 508.70 L 465.00 508.70 C 465.00 510.30 463.70 511.60 462.10 511.60 L 429.50 511.60 C 427.90 511.60 426.60 510.30 426.60 508.70 L 426.60 508.70 C 426.60 507.10 427.90 505.80 429.50 505.80 Z" fill="#e6e6e6" fill-rule="nonzero" node-id="240" stroke="none" target-height="5.8000183" target-width="38.399994" target-x="426.6" target-y="505.8"></path><path d="M 509.50 505.80 L 542.10 505.80 C 543.70 505.80 545.00 507.10 545.00 508.70 L 545.00 508.70 C 545.00 510.30 543.70 511.60 542.10 511.60 L 509.50 511.60 C 507.90 511.60 506.60 510.30 506.60 508.70 L 506.60 508.70 C 506.60 507.10 507.90 505.80 509.50 505.80 Z" fill="#e6e6e6" fill-rule="nonzero" node-id="242" stroke="none" target-height="5.8000183" target-width="38.399994" target-x="506.6" target-y="505.8"></path><path d="M 429.20 519.30 L 434.40 519.30 C 436.00 519.30 437.30 520.60 437.30 522.20 L 437.30 522.20 C 437.30 523.80 436.00 525.10 434.40 525.10 L 429.20 525.10 C 427.60 525.10 426.30 523.80 426.30 522.20 L 426.30 522.20 C 426.30 520.60 427.60 519.30 429.20 519.30 Z" fill="#e6e6e6" fill-rule="nonzero" node-id="244" stroke="none" target-height="5.799988" target-width="11" target-x="426.3" target-y="519.3"></path><path d="M 489.20 519.30 L 494.40 519.30 C 496.00 519.30 497.30 520.60 497.30 522.20 L 497.30 522.20 C 497.30 523.80 496.00 525.10 494.40 525.10 L 489.20 525.10 C 487.60 525.10 486.30 523.80 486.30 522.20 L 486.30 522.20 C 486.30 520.60 487.60 519.30 489.20 519.30 Z" fill="#e6e6e6" fill-rule="nonzero" node-id="246" stroke="none" target-height="5.799988" target-width="11" target-x="486.3" target-y="519.3"></path><path d="M 506.20 519.30 L 511.40 519.30 C 513.00 519.30 514.30 520.60 514.30 522.20 L 514.30 522.20 C 514.30 523.80 513.00 525.10 511.40 525.10 L 506.20 525.10 C 504.60 525.10 503.30 523.80 503.30 522.20 L 503.30 522.20 C 503.30 520.60 504.60 519.30 506.20 519.30 Z" fill="#e6e6e6" fill-rule="nonzero" node-id="248" stroke="none" target-height="5.799988" target-width="11" target-x="503.3" target-y="519.3"></path><path d="M 445.50 518.80 L 478.10 518.80 C 479.70 518.80 481.00 520.10 481.00 521.70 L 481.00 521.70 C 481.00 523.30 479.70 524.60 478.10 524.60 L 445.50 524.60 C 443.90 524.60 442.60 523.30 442.60 521.70 L 442.60 521.70 C 442.60 520.10 443.90 518.80 445.50 518.80 Z" fill="#e6e6e6" fill-rule="nonzero" node-id="250" stroke="none" target-height="5.799988" target-width="38.399994" target-x="442.6" target-y="518.8"></path><path d="M 525.50 518.80 L 558.10 518.80 C 559.70 518.80 561.00 520.10 561.00 521.70 L 561.00 521.70 C 561.00 523.30 559.70 524.60 558.10 524.60 L 525.50 524.60 C 523.90 524.60 522.60 523.30 522.60 521.70 L 522.60 521.70 C 522.60 520.10 523.90 518.80 525.50 518.80 Z" fill="#e6e6e6" fill-rule="nonzero" node-id="252" stroke="none" target-height="5.799988" target-width="38.400024" target-x="522.6" target-y="518.8"></path><path d="M 445.20 532.30 L 450.40 532.30 C 452.00 532.30 453.30 533.60 453.30 535.20 L 453.30 535.20 C 453.30 536.80 452.00 538.10 450.40 538.10 L 445.20 538.10 C 443.60 538.10 442.30 536.80 442.30 535.20 L 442.30 535.20 C 442.30 533.60 443.60 532.30 445.20 532.30 Z" fill="#e6e6e6" fill-rule="nonzero" node-id="254" stroke="none" target-height="5.799988" target-width="11" target-x="442.3" target-y="532.3"></path><path d="M 505.20 532.30 L 510.40 532.30 C 512.00 532.30 513.30 533.60 513.30 535.20 L 513.30 535.20 C 513.30 536.80 512.00 538.10 510.40 538.10 L 505.20 538.10 C 503.60 538.10 502.30 536.80 502.30 535.20 L 502.30 535.20 C 502.30 533.60 503.60 532.30 505.20 532.30 Z" fill="#e6e6e6" fill-rule="nonzero" node-id="256" stroke="none" target-height="5.799988" target-width="11" target-x="502.3" target-y="532.3"></path><path d="M 522.20 532.30 L 527.40 532.30 C 529.00 532.30 530.30 533.60 530.30 535.20 L 530.30 535.20 C 530.30 536.80 529.00 538.10 527.40 538.10 L 522.20 538.10 C 520.60 538.10 519.30 536.80 519.30 535.20 L 519.30 535.20 C 519.30 533.60 520.60 532.30 522.20 532.30 Z" fill="#e6e6e6" fill-rule="nonzero" node-id="258" stroke="none" target-height="5.799988" target-width="11" target-x="519.3" target-y="532.3"></path><path d="M 461.50 531.80 L 494.10 531.80 C 495.70 531.80 497.00 533.10 497.00 534.70 L 497.00 534.70 C 497.00 536.30 495.70 537.60 494.10 537.60 L 461.50 537.60 C 459.90 537.60 458.60 536.30 458.60 534.70 L 458.60 534.70 C 458.60 533.10 459.90 531.80 461.50 531.80 Z" fill="#e6e6e6" fill-rule="nonzero" node-id="260" stroke="none" target-height="5.799988" target-width="38.399994" target-x="458.6" target-y="531.8"></path><path d="M 457.20 584.00 L 462.40 584.00 C 464.00 584.00 465.30 585.30 465.30 586.90 L 465.30 586.90 C 465.30 588.50 464.00 589.80 462.40 589.80 L 457.20 589.80 C 455.60 589.80 454.30 588.50 454.30 586.90 L 454.30 586.90 C 454.30 585.30 455.60 584.00 457.20 584.00 Z" fill="#e6e6e6" fill-rule="nonzero" node-id="262" stroke="none" target-height="5.799988" target-width="11" target-x="454.3" target-y="584"></path><path d="M 474.20 584.00 L 479.40 584.00 C 481.00 584.00 482.30 585.30 482.30 586.90 L 482.30 586.90 C 482.30 588.50 481.00 589.80 479.40 589.80 L 474.20 589.80 C 472.60 589.80 471.30 588.50 471.30 586.90 L 471.30 586.90 C 471.30 585.30 472.60 584.00 474.20 584.00 Z" fill="#e6e6e6" fill-rule="nonzero" node-id="264" stroke="none" target-height="5.799988" target-width="11" target-x="471.3" target-y="584"></path><path d="M 493.50 584.40 L 526.10 584.40 C 527.70 584.40 529.00 585.70 529.00 587.30 L 529.00 587.30 C 529.00 588.90 527.70 590.20 526.10 590.20 L 493.50 590.20 C 491.90 590.20 490.60 588.90 490.60 587.30 L 490.60 587.30 C 490.60 585.70 491.90 584.40 493.50 584.40 Z" fill="#e6e6e6" fill-rule="nonzero" node-id="266" stroke="none" target-height="5.799988" target-width="38.399994" target-x="490.6" target-y="584.4"></path><path d="M 397.20 584.00 L 402.40 584.00 C 404.00 584.00 405.30 585.30 405.30 586.90 L 405.30 586.90 C 405.30 588.50 404.00 589.80 402.40 589.80 L 397.20 589.80 C 395.60 589.80 394.30 588.50 394.30 586.90 L 394.30 586.90 C 394.30 585.30 395.60 584.00 397.20 584.00 Z" fill="#e6e6e6" fill-rule="nonzero" node-id="268" stroke="none" target-height="5.799988" target-width="11" target-x="394.3" target-y="584"></path><path d="M 413.50 584.40 L 446.10 584.40 C 447.70 584.40 449.00 585.70 449.00 587.30 L 449.00 587.30 C 449.00 588.90 447.70 590.20 446.10 590.20 L 413.50 590.20 C 411.90 590.20 410.60 588.90 410.60 587.30 L 410.60 587.30 C 410.60 585.70 411.90 584.40 413.50 584.40 Z" fill="#e6e6e6" fill-rule="nonzero" node-id="270" stroke="none" target-height="5.799988" target-width="38.399994" target-x="410.6" target-y="584.4"></path><path d="M 413.20 571.00 L 418.40 571.00 C 420.00 571.00 421.30 572.30 421.30 573.90 L 421.30 573.90 C 421.30 575.50 420.00 576.80 418.40 576.80 L 413.20 576.80 C 411.60 576.80 410.30 575.50 410.30 573.90 L 410.30 573.90 C 410.30 572.30 411.60 571.00 413.20 571.00 Z" fill="#e6e6e6" fill-rule="nonzero" node-id="272" stroke="none" target-height="5.799988" target-width="11" target-x="410.3" target-y="571"></path><path d="M 473.20 571.00 L 478.40 571.00 C 480.00 571.00 481.30 572.30 481.30 573.90 L 481.30 573.90 C 481.30 575.50 480.00 576.80 478.40 576.80 L 473.20 576.80 C 471.60 576.80 470.30 575.50 470.30 573.90 L 470.30 573.90 C 470.30 572.30 471.60 571.00 473.20 571.00 Z" fill="#e6e6e6" fill-rule="nonzero" node-id="274" stroke="none" target-height="5.799988" target-width="11" target-x="470.3" target-y="571"></path><path d="M 490.20 571.00 L 495.40 571.00 C 497.00 571.00 498.30 572.30 498.30 573.90 L 498.30 573.90 C 498.30 575.50 497.00 576.80 495.40 576.80 L 490.20 576.80 C 488.60 576.80 487.30 575.50 487.30 573.90 L 487.30 573.90 C 487.30 572.30 488.60 571.00 490.20 571.00 Z" fill="#e6e6e6" fill-rule="nonzero" node-id="276" stroke="none" target-height="5.799988" target-width="11" target-x="487.3" target-y="571"></path><path d="M 429.50 571.40 L 462.10 571.40 C 463.70 571.40 465.00 572.70 465.00 574.30 L 465.00 574.30 C 465.00 575.90 463.70 577.20 462.10 577.20 L 429.50 577.20 C 427.90 577.20 426.60 575.90 426.60 574.30 L 426.60 574.30 C 426.60 572.70 427.90 571.40 429.50 571.40 Z" fill="#e6e6e6" fill-rule="nonzero" node-id="278" stroke="none" target-height="5.799988" target-width="38.399994" target-x="426.6" target-y="571.4"></path><path d="M 429.20 558.00 L 434.40 558.00 C 436.00 558.00 437.30 559.30 437.30 560.90 L 437.30 560.90 C 437.30 562.50 436.00 563.80 434.40 563.80 L 429.20 563.80 C 427.60 563.80 426.30 562.50 426.30 560.90 L 426.30 560.90 C 426.30 559.30 427.60 558.00 429.20 558.00 Z" fill="#e6e6e6" fill-rule="nonzero" node-id="280" stroke="none" target-height="5.799988" target-width="11" target-x="426.3" target-y="558"></path><path d="M 489.20 558.00 L 494.40 558.00 C 496.00 558.00 497.30 559.30 497.30 560.90 L 497.30 560.90 C 497.30 562.50 496.00 563.80 494.40 563.80 L 489.20 563.80 C 487.60 563.80 486.30 562.50 486.30 560.90 L 486.30 560.90 C 486.30 559.30 487.60 558.00 489.20 558.00 Z" fill="#e6e6e6" fill-rule="nonzero" node-id="282" stroke="none" target-height="5.799988" target-width="11" target-x="486.3" target-y="558"></path><path d="M 506.20 558.00 L 511.40 558.00 C 513.00 558.00 514.30 559.30 514.30 560.90 L 514.30 560.90 C 514.30 562.50 513.00 563.80 511.40 563.80 L 506.20 563.80 C 504.60 563.80 503.30 562.50 503.30 560.90 L 503.30 560.90 C 503.30 559.30 504.60 558.00 506.20 558.00 Z" fill="#e6e6e6" fill-rule="nonzero" node-id="284" stroke="none" target-height="5.799988" target-width="11" target-x="503.3" target-y="558"></path><path d="M 445.50 558.40 L 478.10 558.40 C 479.70 558.40 481.00 559.70 481.00 561.30 L 481.00 561.30 C 481.00 562.90 479.70 564.20 478.10 564.20 L 445.50 564.20 C 443.90 564.20 442.60 562.90 442.60 561.30 L 442.60 561.30 C 442.60 559.70 443.90 558.40 445.50 558.40 Z" fill="#e6e6e6" fill-rule="nonzero" node-id="286" stroke="none" target-height="5.799988" target-width="38.399994" target-x="442.6" target-y="558.4"></path><path d="M 445.20 545.00 L 450.40 545.00 C 452.00 545.00 453.30 546.30 453.30 547.90 L 453.30 547.90 C 453.30 549.50 452.00 550.80 450.40 550.80 L 445.20 550.80 C 443.60 550.80 442.30 549.50 442.30 547.90 L 442.30 547.90 C 442.30 546.30 443.60 545.00 445.20 545.00 Z" fill="#e6e6e6" fill-rule="nonzero" node-id="288" stroke="none" target-height="5.799988" target-width="11" target-x="442.3" target-y="545"></path><path d="M 505.20 545.00 L 510.40 545.00 C 512.00 545.00 513.30 546.30 513.30 547.90 L 513.30 547.90 C 513.30 549.50 512.00 550.80 510.40 550.80 L 505.20 550.80 C 503.60 550.80 502.30 549.50 502.30 547.90 L 502.30 547.90 C 502.30 546.30 503.60 545.00 505.20 545.00 Z" fill="#e6e6e6" fill-rule="nonzero" node-id="290" stroke="none" target-height="5.799988" target-width="11" target-x="502.3" target-y="545"></path><path d="M 522.20 545.00 L 527.40 545.00 C 529.00 545.00 530.30 546.30 530.30 547.90 L 530.30 547.90 C 530.30 549.50 529.00 550.80 527.40 550.80 L 522.20 550.80 C 520.60 550.80 519.30 549.50 519.30 547.90 L 519.30 547.90 C 519.30 546.30 520.60 545.00 522.20 545.00 Z" fill="#e6e6e6" fill-rule="nonzero" node-id="292" stroke="none" target-height="5.799988" target-width="11" target-x="519.3" target-y="545"></path><path d="M 461.50 545.40 L 494.10 545.40 C 495.70 545.40 497.00 546.70 497.00 548.30 L 497.00 548.30 C 497.00 549.90 495.70 551.20 494.10 551.20 L 461.50 551.20 C 459.90 551.20 458.60 549.90 458.60 548.30 L 458.60 548.30 C 458.60 546.70 459.90 545.40 461.50 545.40 Z" fill="#e6e6e6" fill-rule="nonzero" node-id="294" stroke="none" target-height="5.799988" target-width="38.399994" target-x="458.6" target-y="545.4"></path><path d="M 638.80 771.80 C 638.20 772.10 637.60 772.40 637.00 772.70 C 621.20 780.60 608.60 785.10 591.30 790.00 C 589.80 773.70 588.40 745.00 587.10 727.30 C 586.70 722.70 586.40 718.80 586.00 716.10 C 585.90 714.60 585.60 713.20 585.10 711.90 L 585.20 716.10 L 585.40 727.30 L 586.30 791.40 C 564.80 797.10 542.70 800.30 520.50 800.90 C 519.30 800.90 518.20 800.90 517.10 801.00 C 516.70 801.00 516.30 801.00 515.90 801.00 C 514.70 801.00 513.40 801.00 512.20 801.00 C 488.80 801.00 465.40 798.20 442.70 792.60 C 443.20 776.50 443.70 748.10 444.20 727.30 C 444.30 723.20 444.40 719.40 444.50 716.10 C 444.70 708.90 444.90 703.80 445.10 702.10 C 444.90 702.40 444.80 702.70 444.70 703.10 C 443.80 707.40 443.10 711.80 442.80 716.20 C 442.50 719.50 442.10 723.30 441.80 727.40 C 439.90 749.00 438.00 778.40 436.00 790.90 C 424.10 787.70 412.40 783.60 401.00 778.90 C 395.00 776.40 389.10 773.70 383.30 770.80 C 384.40 763.60 385.50 755.50 386.70 747.20 C 387.60 740.70 388.60 734.00 389.50 727.40 C 391.00 717.20 392.50 707.20 394.10 698.40 C 396.40 685.60 398.70 675.20 401.00 670.50 C 403.20 666.00 405.40 661.60 407.50 657.30 C 408.20 655.80 409.00 654.30 409.70 652.90 C 409.90 652.60 410.00 652.20 410.20 651.90 C 411.70 648.90 413.20 646.00 414.60 643.30 C 415.80 641.00 417.00 638.80 418.10 636.80 C 420.70 631.90 423.00 628.00 424.60 625.60 C 431.50 615.10 441.90 607.20 453.90 603.40 L 454.20 603.30 L 454.40 603.40 L 474.90 597.10 L 477.90 596.20 L 479.90 595.60 L 487.00 590.20 L 490.80 587.30 L 494.40 584.50 L 501.50 579.10 L 545.20 581.80 L 553.70 602.30 L 572.80 609.30 L 573.10 609.10 L 573.40 609.00 L 573.70 609.10 C 585.70 612.90 596.00 620.80 603.00 631.30 C 603.90 632.70 605.10 634.60 606.40 636.80 C 607.50 638.70 608.70 640.90 610.00 643.30 C 611.80 646.70 613.90 650.60 616.00 654.80 C 616.50 655.70 617.00 656.70 617.40 657.60 C 618.30 659.40 619.20 661.20 620.10 663.00 C 622.20 667.20 624.40 671.70 626.60 676.20 C 628.50 680.10 630.40 688.20 632.30 698.40 C 633.90 706.90 635.40 716.90 636.90 727.40 C 638.90 740.90 636.80 757.10 638.60 769.60 C 638.60 770.20 638.70 771.00 638.80 771.80 Z" fill="#3f3d56" fill-rule="nonzero" node-id="296" stroke="none" target-height="221.90002" target-width="255.5" target-x="383.3" target-y="579.1"></path><path d="M 563.40 511.90 C 563.40 539.96 540.66 562.70 512.60 562.70 C 484.54 562.70 461.80 539.96 461.80 511.90 C 461.80 483.84 484.54 461.10 512.60 461.10 C 540.66 461.10 563.40 483.84 563.40 511.90 Z" fill="#a0616a" fill-rule="nonzero" node-id="298" stroke="none" target-height="101.600006" target-width="101.60004" target-x="461.8" target-y="461.1"></path><path d="M 596.50 444.50 C 595.50 442.20 594.20 440.00 592.50 438.00 C 584.80 428.60 570.70 424.40 556.30 435.60 C 553.50 435.00 550.60 435.10 548.00 436.10 C 546.70 436.60 545.50 437.20 544.50 438.00 C 542.30 439.70 540.60 441.90 539.60 444.50 C 539.00 445.90 538.70 447.30 538.50 448.70 C 534.90 446.80 531.20 445.40 527.30 444.50 C 517.70 442.10 507.70 442.10 498.20 444.50 C 495.10 445.30 492.20 446.40 489.40 448.00 C 484.70 450.70 482.00 454.10 481.60 457.90 C 474.80 458.30 467.80 461.80 462.60 467.70 C 462.00 468.30 461.40 469.00 460.90 469.70 C 456.50 475.50 454.10 482.50 454.20 489.80 L 454.20 491.10 L 455.50 491.10 C 459.00 491.10 462.40 491.80 465.70 493.10 C 467.80 493.90 469.80 495.00 471.60 496.30 C 472.80 497.10 473.90 498.10 475.00 499.10 C 477.40 501.50 479.50 504.20 481.10 507.10 C 485.30 514.60 486.70 523.30 485.20 531.80 C 484.90 533.80 484.30 535.70 483.70 537.60 C 482.80 540.30 481.50 542.80 480.00 545.20 C 479.90 545.30 479.90 545.40 479.80 545.50 C 479.10 546.60 478.50 547.70 477.90 548.80 C 477.40 549.60 477.00 550.50 476.60 551.30 C 475.50 553.60 474.50 556.10 473.70 558.50 C 472.30 562.90 471.50 567.40 471.30 572.00 C 471.20 573.20 471.20 574.40 471.30 575.70 C 471.40 578.80 471.70 582.00 472.30 585.10 C 472.40 585.50 472.50 585.90 472.60 586.30 L 473.30 589.50 L 475.00 597.10 L 476.20 602.30 L 477.30 607.20 L 478.90 604.90 C 479.50 604.10 480.90 601.60 482.80 598.20 C 484.00 595.90 485.50 593.20 487.10 590.30 C 489.30 586.10 491.70 581.50 494.00 576.90 C 495.00 575.00 495.90 573.20 496.80 571.40 C 498.50 567.90 500.10 564.60 501.50 561.70 C 502.80 559.00 503.90 556.60 504.70 554.60 C 504.90 555.90 505.20 557.20 505.30 558.50 C 505.50 559.80 505.60 561.20 505.70 562.50 C 505.70 562.70 505.70 562.90 505.70 563.10 L 505.70 563.90 L 505.70 564.10 L 506.80 564.20 C 512.90 564.90 519.10 564.90 525.20 564.30 L 525.20 564.30 C 533.30 563.70 541.30 561.80 548.80 558.60 C 553.10 556.80 557.00 554.30 560.60 551.40 C 562.30 550.00 563.80 548.50 565.30 546.90 C 565.70 546.50 566.00 546.10 566.30 545.70 C 568.30 543.30 570.00 540.60 571.30 537.80 C 572.20 535.90 573.00 534.00 573.60 532.00 C 577.40 520.40 577.20 505.90 572.90 488.60 C 574.10 488.40 575.20 488.00 576.20 487.30 C 579.30 485.40 581.50 481.70 582.20 477.10 L 583.30 477.40 C 587.10 475.60 590.50 473.00 593.30 469.90 C 593.80 469.30 594.40 468.60 594.80 467.90 C 599.60 460.50 599.60 451.80 596.50 444.50 Z" fill="#2f2e41" fill-rule="nonzero" node-id="300" stroke="none" target-height="178.32364" target-width="144.41248" target-x="454.2" target-y="428.87637"></path><g node-id="328"><path d="M 429.30 698.30 L 437.80 665.50 L 445.30 693.80 Z" fill="#000000" fill-opacity="0.2" fill-rule="nonzero" group-id="1" node-id="304" stroke-linecap="butt" stroke-opacity="0.2" stroke-width="1" target-height="32.799988" target-width="16" target-x="429.3" target-y="665.5"></path></g><path d="M 655.40 676.90 C 652.40 718.80 655.50 737.20 638.70 771.70 C 623.40 779.20 607.50 785.30 591.20 789.90 C 589.50 790.40 587.80 790.80 586.10 791.30 C 564.60 797.00 542.50 800.20 520.30 800.80 C 519.10 800.80 518.00 800.80 516.90 800.90 C 516.50 800.90 516.10 800.90 515.70 800.90 C 514.50 800.90 513.20 800.90 512.00 800.90 C 488.60 800.90 465.20 798.10 442.50 792.50 C 440.20 791.90 438.00 791.40 435.70 790.70 C 423.80 787.50 412.10 783.40 400.70 778.70 C 394.70 776.20 388.80 773.50 383.00 770.60 C 381.70 769.90 380.40 769.30 379.10 768.60 C 372.50 756.90 368.70 742.80 368.60 725.70 C 373.20 696.40 645.30 651.60 655.40 676.90 Z" fill="#2f2e41" fill-rule="nonzero" node-id="307" stroke="none" target-height="131.40125" target-width="286.80002" target-x="368.6" target-y="669.4988"></path><path d="M 655.40 684.10 C 655.60 681.50 655.70 678.80 655.90 676.00 C 645.80 650.70 373.70 695.50 369.10 724.90 C 369.10 727.60 369.20 730.20 369.40 732.80 C 380.60 703.80 639.10 661.20 655.40 684.10 Z" fill="#000000" fill-opacity="0.2" fill-rule="nonzero" group-id="2" node-id="311" stroke-linecap="butt" stroke-opacity="0.2" stroke-width="1" target-height="64.20001" target-width="286.80002" target-x="369.1" target-y="668.6"></path><path d="M 386.10 565.20 C 386.40 561.70 383.70 558.60 380.20 558.40 C 379.90 558.40 379.60 558.40 379.30 558.40 C 379.00 558.40 378.60 558.50 378.30 558.50 L 338.50 567.50 C 336.70 567.90 335.20 569.10 334.30 570.70 C 333.70 570.70 333.10 570.80 332.60 571.00 C 327.40 572.20 324.10 577.40 325.30 582.60 C 326.50 587.80 331.70 591.10 336.90 589.90 C 338.30 589.60 339.70 588.90 340.80 588.00 L 354.30 625.90 C 355.70 628.30 358.50 629.60 361.20 628.90 L 387.00 623.10 C 389.70 622.50 391.70 620.20 391.90 617.40 L 386.10 565.20 Z M 336.30 587.10 C 332.60 587.90 328.90 585.60 328.00 581.90 C 327.20 578.20 329.50 574.50 333.20 573.60 C 333.30 573.60 333.50 573.60 333.60 573.60 C 333.60 574.70 333.90 575.90 334.40 576.90 L 339.30 585.50 C 338.50 586.30 337.50 586.80 336.30 587.10 Z" fill="#2f2e41" fill-rule="nonzero" node-id="314" stroke="none" target-height="70.683716" target-width="66.83435" target-x="325.06564" target-y="558.4"></path><path d="M 379.30 558.30 C 379.70 563.30 371.10 569.10 359.50 571.40 C 348.90 573.60 339.40 572.10 336.80 568.10 C 337.30 567.80 337.90 567.50 338.50 567.40 L 378.30 558.40 C 378.70 558.40 379.00 558.30 379.30 558.30 Z" fill="#3f3d56" fill-rule="nonzero" node-id="316" stroke="none" target-height="14.111084" target-width="42.5" target-x="336.8" target-y="558.3"></path><path d="M 351.80 685.90 L 374.10 674.70 L 355.50 624.40 L 350.60 599.10 C 348.60 588.70 338.50 581.90 328.10 583.90 C 324.80 584.50 321.80 586.00 319.30 588.20 L 319.30 588.20 C 311.50 594.90 310.40 606.70 316.80 614.70 L 335.00 637.50 L 351.80 685.90 Z" fill="#a0616a" fill-rule="nonzero" node-id="318" stroke="none" target-height="102.34131" target-width="61.457977" target-x="312.64203" target-y="583.5587"></path><path d="M 374.20 665.40 L 344.40 680.30 L 367.00 751.10 C 370.30 761.40 378.80 769.30 389.30 771.80 L 389.30 771.80 C 402.40 774.90 416.10 769.20 423.00 757.60 L 483.00 654.90 C 491.80 640.20 487.30 621.10 472.80 611.90 L 472.80 611.90 C 458.00 602.60 438.50 606.90 429.20 621.70 C 428.60 622.70 428.00 623.70 427.50 624.70 L 390.90 702.60 L 374.20 665.40 Z" fill="#3f3d56" fill-rule="nonzero" node-id="320" stroke="none" target-height="165.578" target-width="143.08722" target-x="344.4" target-y="607.01965"></path><path d="M 365.00 601.40 C 364.90 601.40 364.90 601.40 364.80 601.40 L 358.30 599.20 C 358.00 599.10 357.90 598.80 358.00 598.60 C 358.00 598.50 358.10 598.50 358.10 598.40 L 362.90 593.10 C 363.10 592.90 363.40 592.90 363.60 593.10 C 363.80 593.30 363.80 593.60 363.60 593.80 C 363.60 593.80 363.60 593.80 363.60 593.80 L 359.30 598.50 L 365.10 600.50 C 365.40 600.60 365.50 600.90 365.40 601.10 C 365.40 601.30 365.20 601.40 365.00 601.40 Z" fill="#c5a47a" fill-rule="nonzero" node-id="322" stroke="none" target-height="8.450012" target-width="7.4102173" target-x="357.99487" target-y="592.95"></path><path d="M 373.90 599.60 C 373.60 599.60 373.40 599.40 373.40 599.10 C 373.40 599.00 373.50 598.80 373.60 598.70 L 378.00 594.50 L 372.10 592.10 C 371.80 592.00 371.70 591.70 371.80 591.40 C 371.90 591.10 372.20 591.00 372.50 591.10 C 372.50 591.10 372.50 591.10 372.50 591.10 L 379.10 593.80 C 379.40 593.90 379.50 594.20 379.40 594.50 C 379.40 594.60 379.30 594.60 379.30 594.70 L 374.40 599.50 C 374.10 599.60 374.00 599.60 373.90 599.60 Z" fill="#c5a47a" fill-rule="nonzero" node-id="324" stroke="none" target-height="8.5" target-width="7.600006" target-x="371.8" target-y="591.1"></path><path d="M 366.30 604.50 C 366.30 604.50 366.20 604.50 366.20 604.50 C 365.90 604.40 365.80 604.10 365.90 603.90 C 365.90 603.90 365.90 603.90 365.90 603.90 L 370.50 588.90 C 370.60 588.60 370.90 588.50 371.10 588.60 C 371.40 588.70 371.50 589.00 371.40 589.20 L 366.80 604.20 C 366.70 604.40 366.60 604.50 366.30 604.50 Z" fill="#c5a47a" fill-rule="nonzero" node-id="326" stroke="none" target-height="15.90509" target-width="5.510193" target-x="365.8949" target-y="588.5949"></path></svg>
